<?xml version="1.0" encoding="utf-8"?>
<!-- Generator: Adobe Illustrator 24.3.0, SVG Export Plug-In . SVG Version: 6.00 Build 0)  -->
<svg version="1.1" id="Artwork" xmlns="http://www.w3.org/2000/svg" xmlns:xlink="http://www.w3.org/1999/xlink" x="0px" y="0px"
	 viewBox="0 0 500 500" style="enable-background:new 0 0 500 500;" xml:space="preserve">
<style type="text/css">
	.st0{fill:#e86b63;}
</style>
<g>
	<path class="st0" d="M488.5,500.4h-477c-4.3,0-7.9-1.9-10-5.1c-2-3.3-2.1-7.3-0.1-11.2L240.7,6.2c2-4.1,5.4-6.4,9.3-6.4l0,0
		c3.8,0,7.3,2.4,9.3,6.4l239.3,477.9c1.9,3.8,1.9,7.9-0.1,11.2C496.5,498.6,492.9,500.4,488.5,500.4z M486.5,490.3L486.5,490.3
		L486.5,490.3z M13.7,490.3L13.7,490.3L13.7,490.3z M15.4,486.7h469.3L250.1,18.1L15.4,486.7z"/>
</g>
<g>
	<path class="st0" d="M250.6,375.6c-3.9,0-7.1-3.2-7.1-7.1V159.8c0-3.9,3.2-7.1,7.1-7.1s7.1,3.2,7.1,7.1v208.7
		C257.7,372.4,254.6,375.6,250.6,375.6z"/>
</g>
<g>
	<path class="st0" d="M250.1,431.8c-4.9,0-7.7-2.9-7.7-7.7c0-4.8,2.9-7.7,7.7-7.7s7.7,2.9,7.7,7.7C257.8,429,255,431.8,250.1,431.8z
		"/>
</g>
</svg>
