<?xml version="1.0" encoding="utf-8"?>
<!-- Generator: Adobe Illustrator 24.3.0, SVG Export Plug-In . SVG Version: 6.00 Build 0)  -->
<svg version="1.1" id="Capa_1" xmlns="http://www.w3.org/2000/svg" xmlns:xlink="http://www.w3.org/1999/xlink" x="0px" y="0px"
	 viewBox="0 0 500 500" style="enable-background:new 0 0 500 500;" xml:space="preserve">
<style type="text/css">
	.st0{fill:#006AFF;}
</style>
<path class="st0" d="M406.5,258.1c-23.5,0.1-46.1,9.1-63.1,25.2l-47.7-42.1c13.4-16,20.8-36.2,21.1-57c-0.1-3.8-0.4-7.6-1.1-11.4
	l71.7-21.1c15.1,28,50.1,38.4,78.1,23.3c23.6-12.8,35.3-40.2,28.1-66.1c-8.5-30.7-40.3-48.6-71-40.1c-25.7,7.1-43.2,31-42.2,57.7
	c-0.1,2-0.1,3.9,0,5.9l-70.7,21.1c-17.5-46.6-69.4-70.1-116-52.6c-14,5.3-26.5,13.9-36.3,25.2l-46.5-41.7c6-8.9,9.3-19.3,9.2-30.1
	c0.1-29.9-24-54.2-53.8-54.3s-54,24-54.2,53.9s24,54.2,53.8,54.3c10.7,0.1,21.2-3.1,30.2-9l49.4,42.1c-17.4,31.4-13.9,70.3,8.8,98.1
	l-42,42c-12.3-11.9-28.7-18.6-45.9-18.5c-36.6,0-66.4,29.7-66.4,66.2c0,17.6,7,34.6,19.6,47c25.9,25.9,67.8,25.8,93.7,0
	c12.5-12.5,19.5-29.4,19.4-47.2c0-10.7-2.7-21.1-7.8-30.5l45.2-44.4c15.6,13.3,35.4,20.7,56,21.1c19.8-0.1,39.1-6.8,54.9-18.9
	l48.8,42.1c-10.5,15.4-16,33.6-16,52.2c0.1,13.6,3.1,27,8.8,39.3L270,414.3c-17.4-24.1-51.1-29.5-75.2-12.2
	c-19.1,13.7-27,38.3-19.6,60.5c9.2,28.3,39.6,43.7,67.8,34.6c22.3-7.3,37.3-28,37.2-51.4c-0.1-4.3-0.6-8.5-1.5-12.6l55.1-25.2
	c17.4,22.5,44.3,35.7,72.8,35.8c51.5,0,93.2-41.7,93.2-93.2l0,0c0-51.5-41.7-93.2-93.2-93.2C406.7,257.3,406.5,258.1,406.5,258.1z
	 M438.5,88.5c20.5,0,37,16.6,37,37.1c0,20.5-16.6,37-37.1,37c-20.5,0-37-16.6-37-37.1S418,88.5,438.5,88.5z M66.2,87.3
	c-18.2,0-33-14.9-33-33.1s14.9-33,33.1-33s33,14.9,33,33.1c0,0.1,0,0.1,0,0.1c0,18.1-14.7,32.9-32.9,32.8
	C66.3,87.3,66.2,87.3,66.2,87.3L66.2,87.3z M226.2,479.5c-18.2,0.1-33.1-14.6-33.3-32.8c-0.1-18.2,14.6-33.1,32.8-33.3
	s33.1,14.6,33.3,32.8c0,0.1,0,0.3,0,0.4C259,464.8,244.4,479.5,226.2,479.5z M66.2,375.4c-25,0-45.2-20.3-45.2-45.2
	s20.3-45.2,45.2-45.2s45.2,20.3,45.2,45.2S91.2,375.4,66.2,375.4z M156.2,184.5c0-38.5,31.1-69.6,69.6-69.6s69.6,31.1,69.6,69.6
	s-31.1,69.6-69.6,69.6C187.4,254.1,156.2,222.9,156.2,184.5z M406.5,423.5c-39.8,0-72.1-32.4-72.1-72.2l0,0
	c0-39.8,32.4-72.1,72.2-72.1s72.1,32.4,72.1,72.2C478.6,391.2,446.3,423.5,406.5,423.5z"/>
</svg>
