<?xml version="1.0" encoding="utf-8"?>
<!-- Generator: Adobe Illustrator 24.3.0, SVG Export Plug-In . SVG Version: 6.00 Build 0)  -->
<svg version="1.1" id="Artwork" xmlns="http://www.w3.org/2000/svg" xmlns:xlink="http://www.w3.org/1999/xlink" x="0px" y="0px"
	 viewBox="0 0 500 500" style="enable-background:new 0 0 500 500;" xml:space="preserve">
<style type="text/css">
	.st0{fill:#006AFF;}
</style>
<g>
	<path class="st0" d="M367.5,86.7c-4.4-3.2-9.8-4.2-14.9-2.6L14.1,186.4v-12.7c0-3.9-3.1-7-7-7s-7,3.1-7,7v152.7c0,3.9,3.1,7,7,7
		s7.1-3.2,7-7v-12.8l98.6,29.8c-0.1,0.4-0.3,0.7-0.4,1.1l-6.1,19.4c-2.3,7.5,1.9,15.5,9.3,17.9l59.1,18.5c1.4,0.4,2.8,0.6,4.3,0.6
		c2.3,0,4.6-0.6,6.6-1.7c3.3-1.7,5.8-4.7,7-8.3l6.1-19.4c0.2-0.6,0.3-1.3,0.5-1.9L352.5,416c1.6,0.5,3.2,0.7,4.8,0.7
		c3.5,0,7-1.1,10.1-3.4c4.6-3.5,7.5-9.2,7.5-15.2V101.8C374.9,95.8,372.2,90.1,367.5,86.7z M178.9,386.6l-59.1-18.5l6.1-19.4
		l59.1,18.5L178.9,386.6z M360.8,398.2c0,1.6-0.6,3-1.8,3.8c-0.8,0.6-1.6,0.8-2.4,0.5L17.7,300c-1.6-0.5-2.7-2.3-2.7-4.3v-91.3
		c0-2.1,1.1-3.8,2.7-4.3L356.6,97.5c0.3-0.1,0.5-0.1,0.8-0.1c0.6,0,1.1,0.2,1.6,0.6c1.1,0.8,1.8,2.3,1.8,3.8V398.2z"/>
	<path class="st0" d="M491.6,236H421c-3.9,0-7.1,3.2-7.1,7.1s3.2,7.1,7.1,7.1h70.6c3.9,0,7.1-3.2,7.1-7.1S495.5,236,491.6,236z"/>
	<path class="st0" d="M428.1,333.9c-2.8-2.8-7.3-2.8-10,0c-2.8,2.8-2.8,7.3,0,10l49.9,49.9c1.4,1.4,3.2,2.1,5.1,2.1
		c1.8,0,3.6-0.7,5-2.1c2.8-2.8,2.8-7.3,0-10L428.1,333.9z"/>
	<path class="st0" d="M423.3,153.1c1.8,0,3.6-0.7,5-2.1l49.9-49.9c2.8-2.8,2.8-7.3,0-10c-2.8-2.8-7.3-2.8-10,0L418.3,141
		c-2.8,2.8-2.8,7.3,0,10C419.7,152.3,421.5,153.1,423.3,153.1z"/>
</g>
</svg>
