<?xml version="1.0" encoding="utf-8"?>
<!-- Generator: Adobe Illustrator 24.3.0, SVG Export Plug-In . SVG Version: 6.00 Build 0)  -->
<svg version="1.1" id="Capa_1" xmlns="http://www.w3.org/2000/svg" xmlns:xlink="http://www.w3.org/1999/xlink" x="0px" y="0px"
	 viewBox="0 0 500 500" style="enable-background:new 0 0 500 500;" xml:space="preserve">
<style type="text/css">
	.st0{fill-rule:evenodd;clip-rule:evenodd;fill:#006AFF;}
</style>
<path class="st0" d="M374.6,238.8c5.8,0,10.4,4.7,10.4,10.4c0,5.7-4.7,10.4-10.4,10.4H260.3v114.5c0,5.8-4.7,10.4-10.4,10.4
	c-5.7,0-10.4-4.7-10.4-10.4V259.7H125.4c-5.8,0-10.4-4.7-10.4-10.4c0-5.7,4.7-10.4,10.4-10.4h114V125.8c0-5.8,4.7-10.4,10.4-10.4
	c5.7,0,10.4,4.7,10.4,10.4v113L374.6,238.8L374.6,238.8z M261,479c51.2-0.9,218.1-20.2,218.1-228.4c0-90.1-30.9-155.2-91.6-193.3
	C337.9,26.2,281.8,21.6,260,21.1c-5.5-0.1-12-0.2-18.1-0.2h-4.8c-21.7,0.2-77.4,3.9-126.3,34.7C51,93.1,20.8,158.2,20.8,249.2
	c0,91.1,30.4,156.5,90.7,194.4c49.4,31.1,105.4,35.1,127.3,35.5c2.5,0.1,5,0.1,7.5,0.1C251.4,479.2,256.5,479.2,261,479L261,479z
	 M260.4,0.2C309.3,1.4,500,20.7,500,250.6c0,230.4-190.8,248.3-238.5,249.2c-4.6,0.1-9.9,0.1-15.2,0.1c-2.6,0-5.2,0-7.8-0.1
	C188.3,499.2,0,481.1,0,249.2C0,17.6,186.6,0.4,236.8,0h5C248.2,0,254.7,0.1,260.4,0.2L260.4,0.2z"/>
</svg>
