<?xml version="1.0" encoding="UTF-8"?>
<!-- Generator: Adobe Illustrator 24.3.0, SVG Export Plug-In . SVG Version: 6.00 Build 0)  -->
<svg xmlns="http://www.w3.org/2000/svg" xmlns:xlink="http://www.w3.org/1999/xlink" version="1.1" id="Capa_1" x="0px" y="0px" viewBox="0 0 500 500" style="enable-background:new 0 0 500 500;" xml:space="preserve">
<style type="text/css">
	.st0{fill-rule:evenodd;clip-rule:evenodd;fill:#006AFF;}
</style>
<path class="st0" d="M450.7,129c-9.6,0-17.4-7.8-17.4-17.4s7.8-17.4,17.4-17.4s17.4,7.8,17.4,17.4C468.1,121.3,460.3,129,450.7,129   M340.8,309.4L340.8,309.4 M151.1,226.3c-9.6-0.4-17.1-8.4-16.8-18c0.3-9.1,7.6-16.4,16.8-16.8c9.6-0.4,17.6,7.2,18,16.8  c0.4,9.6-7.2,17.6-16.8,18C151.9,226.4,151.5,226.4,151.1,226.3 M49.4,405.7L49.4,405.7 M450.7,62.5c-27.2,0-49.2,22-49.3,49.1  c0,11.9,4.4,22.6,11.5,31.1l-60.7,101.6c-3.8-0.9-7.5-1.4-11.4-1.4c-14.3,0-27.1,6.2-36.1,16L199.9,213c0.1-1.4,0.4-2.6,0.4-4.1  c0-27.1-22-49.1-49.2-49.1s-49.2,22-49.3,49.1c0,12.2,4.8,23.5,12.6,32.4l-56,98.8c-3-0.6-6-0.9-9.1-0.9c-27.2,0-49.2,22-49.3,49.1  c0.1,27.1,22.1,49.1,49.4,49.1c27.2,0,49.2-22,49.3-49.1c0-12.5-4.8-23.8-12.6-32.4l56.1-98.9c3,0.6,5.9,1.1,9,1.1  c14.3,0,27.1-6.2,36.1-16L292,288c-0.1,1.4-0.4,2.6-0.4,4.1c0,27.2,22,49.3,49.2,49.3c27.2,0,49.3-22,49.3-49.2c0,0,0,0,0-0.1  c0-11.6-4.2-22.1-11-30.6L440,159.5c3.5,0.8,7,1.3,10.7,1.3c27.2,0,49.1-22,49.2-49.1C499.9,84.6,477.9,62.5,450.7,62.5" style="fill: #58617a;"/>
</svg>
