<?xml version="1.0" encoding="UTF-8"?>
<svg xmlns="http://www.w3.org/2000/svg" viewBox="0 0 500 500"><g fill="#006aff"><path d="M495.8 149.6L384.9 38.7c-2.6-2.7-6.3-4.2-10-4.2H242.6c-17.1.1-27.7 10.6-27.7 27.5v375.7c0 17.2 10.7 27.9 27.8 27.9h212c6.9 0 13.8 0 20.6-.1 11.2 0 17.1-5 20.1-9.2 4.1-5.8 4.6-12.7 4.6-18V159.6c0-3.7-1.5-7.4-4.2-10zM389.1 83.1l62.4 62.4h-21.1c-13.2 0-23.8-3.7-30.7-10.6-6.9-6.9-10.5-17.5-10.5-30.7V83.1zm50.7 354.1H243.3V63h117.3v41.2c0 20.8 6.5 38.4 18.8 50.8 12.4 12.4 29.9 18.9 50.8 18.9h41.2v263.3h-31.6z" style="fill: #58617a;"/><path d="M431.2 214.2H283.7c-7.8 0-14.2 6.4-14.2 14.2 0 7.8 6.4 14.2 14.2 14.2h147.5c7.8 0 14.2-6.4 14.2-14.2 0-7.8-6.4-14.2-14.2-14.2zM431.2 283.7H283.7c-7.8 0-14.2 6.4-14.2 14.2 0 7.8 6.4 14.2 14.2 14.2h147.5c7.8 0 14.2-6.4 14.2-14.2 0-7.8-6.4-14.2-14.2-14.2zM431.2 353.6H283.7c-7.8 0-14.2 6.4-14.2 14.2s6.4 14.2 14.2 14.2h147.5c7.8 0 14.2-6.4 14.2-14.2s-6.4-14.2-14.2-14.2zM62.9 205.2c5.9 0 10.7-4.8 10.7-10.7v-21.1c0-18.1 4.3-31.4 12.8-39.6 8.2-7.9 21.2-11.9 38.6-11.9h18.5c-3.5 3.1-7.4 6.4-11.1 9.6-2.3 2.1-3.7 5-3.7 8.1 0 5.9 4.8 10.7 10.7 10.7 2.6 0 5-.9 7-2.5 3.4-3 20.9-18 24.1-21.2 9.4-9.4 9.3-21.1-.1-30.7-6.3-6.3-23.3-20.8-24-21.4-4.5-3.8-11.2-3.3-15 1.2-3.8 4.5-3.3 11.2 1.2 15 .1.1 5.6 4.8 11.4 9.8h-19c-23.2 0-41.1 6-53.4 17.8-12.9 12.3-19.3 30.9-19.3 55v21.1c0 6 4.7 10.8 10.6 10.8zM115.2 218.9c-2.7-2.6-6.3-4.1-10.1-4.1H21.6C8.9 214.7 0 223.6 0 236.3v207.1c0 13 8.7 21.8 21.6 21.8h70.2l67.9-.1c12.6 0 21.3-8.7 21.3-21.3V290.5c0-3.8-1.5-7.4-4.2-10l-61.6-61.6zm28.6 68.9h-9.5c-18.7 0-26.3-7.6-26.3-26.3V252l35.8 35.8zM28.4 436.7V243.2h58.2v18.3c0 15.2 4.2 27.1 12.4 35.3s20.1 12.4 35.3 12.4h18.2v127.6c-24.3-.1-100-.1-124.1-.1z" style="fill: #58617a;"/><path d="M129.9 323.3H51.3c-5.9 0-10.7 4.8-10.7 10.7 0 5.9 4.8 10.7 10.7 10.7h78.6c5.9 0 10.7-4.8 10.7-10.7 0-6-4.8-10.7-10.7-10.7zM129.9 360.2H51.3c-5.9 0-10.7 4.8-10.7 10.7s4.8 10.7 10.7 10.7h78.6c5.9 0 10.7-4.8 10.7-10.7s-4.8-10.7-10.7-10.7zM129.9 397.2H51.3c-5.9 0-10.7 4.8-10.7 10.7s4.8 10.7 10.7 10.7h78.6c5.9 0 10.7-4.8 10.7-10.7s-4.8-10.7-10.7-10.7z" style="fill: #58617a;"/></g></svg>
