<?xml version="1.0" encoding="UTF-8"?>
<!-- Generator: Adobe Illustrator 24.3.0, SVG Export Plug-In . SVG Version: 6.00 Build 0)  -->
<svg xmlns="http://www.w3.org/2000/svg" xmlns:xlink="http://www.w3.org/1999/xlink" version="1.1" id="Capa_1" x="0px" y="0px" viewBox="0 0 500 500" style="enable-background:new 0 0 500 500;" xml:space="preserve">
<style type="text/css">
	.st0{fill-rule:evenodd;clip-rule:evenodd;fill:#006AFF;}
</style>
<path class="st0" d="M467.6,462.9c0,2.6-2.1,4.7-4.7,4.7H179.4c-2.6,0-4.7-2.1-4.7-4.7V357.6h144.6c21.1,0,38.3-17.2,38.3-38.3  V174.7h105.2c2.6,0,4.7,2.1,4.7,4.7C467.6,179.4,467.6,462.9,467.6,462.9z M32.4,319.4v-281c0-3.3,2.7-6,6-6h280.9c3.3,0,6,2.7,6,6  v281c0,3.3-2.7,6-6,6h-281C35,325.3,32.4,322.6,32.4,319.4C32.3,319.4,32.3,319.4,32.4,319.4L32.4,319.4z M462.9,142.3H357.6V38.3  c0-21.2-17.2-38.3-38.3-38.3h-281C17.1,0,0,17.1,0,38.3v281c0,21.1,17.2,38.3,38.3,38.3h103.9v105.2c0,20.4,16.6,37.1,37.1,37.1  h283.5c20.5,0,37.1-16.6,37.1-37.1V179.4C500,158.9,483.3,142.3,462.9,142.3L462.9,142.3z" style="fill: #58617a;"/>
</svg>
