<?xml version="1.0" encoding="UTF-8"?>
<!-- Generator: Adobe Illustrator 24.3.0, SVG Export Plug-In . SVG Version: 6.00 Build 0)  -->
<svg xmlns="http://www.w3.org/2000/svg" xmlns:xlink="http://www.w3.org/1999/xlink" version="1.1" id="Capa_1" x="0px" y="0px" viewBox="0 0 500 500" style="enable-background:new 0 0 500 500;" xml:space="preserve">
<style type="text/css">
	.st0{fill-rule:evenodd;clip-rule:evenodd;fill:#006AFF;}
</style>
<path class="st0" d="M131.8,500c-7.6,0-14.9-3.3-20-8.9c-10.2-11.4-9.5-28.7,1.6-39.3L329,248.1L113.6,48.4  c-11.1-10.5-11.9-27.8-1.8-39.3c9.7-11.1,26.6-12.2,37.7-2.5c0.2,0.2,0.4,0.4,0.6,0.6l237.3,220.2c5.7,5.3,8.9,12.7,8.9,20.4  c0.1,7.8-3.1,15.2-8.7,20.6L150.3,492.6C145.3,497.3,138.7,500,131.8,500" style="fill: #58617a;"/>
</svg>
