<?xml version="1.0" encoding="utf-8"?>
<!-- Generator: Adobe Illustrator 24.3.0, SVG Export Plug-In . SVG Version: 6.00 Build 0)  -->
<svg version="1.1" id="Artwork" xmlns="http://www.w3.org/2000/svg" xmlns:xlink="http://www.w3.org/1999/xlink" x="0px" y="0px"
	 viewBox="0 0 500 500" style="enable-background:new 0 0 500 500;" xml:space="preserve">
<style type="text/css">
	.st0{fill:#006AFF;}
</style>
<g>
	<path class="st0" d="M301.7,111.5l-242.4,0.1c-19.5,0-34.5,5.3-44.6,15.9C5,137.7,0,152.4,0,171.3v115.7
		c0,38.8,21.1,60.2,59.3,60.2l64.6,0l-26.9,27.6l-90,0c-3.9,0-7,3.1-7,7c0,3.9,3.1,7,7,7l250.7-0.1c0.4,0.1,0.8,0.1,1.2,0.1
		c0.4,0,0.8,0,1.2-0.1l93.9,0c3.9,0,7-3.1,7-7s-3.1-7-7-7l-92.3,0l-27.1-27.5l67.1,0c38.3,0,59.3-21.4,59.3-60.2V171.2
		c0-18.9-5-33.6-14.7-43.8C336.2,116.8,321.2,111.5,301.7,111.5z M215.3,347.7l26.7,27.1l-125.2,0.1l26.9-27.6l71.2,0
		C215,347.4,215.1,347.5,215.3,347.7z M346.9,287c0,31-14.8,46.1-45.2,46.1l-242.4,0.1c-30.4,0-45.2-15.1-45.2-46.1V171.3
		c0-15.1,3.6-26.5,10.8-34c7.4-7.6,19-11.5,34.5-11.5l242.4-0.1c15.5,0,27.1,3.8,34.4,11.5c7.2,7.4,10.8,18.9,10.8,34V287z"/>
	<path class="st0" d="M499.8,158.3c0-40.8-21.1-46.8-33.7-46.8h-58c-12.5,0-33.4,6.1-33.4,46.8l0.1,183.9
		c0,40.8,20.9,46.8,33.4,46.8h58c12.6,0,33.7-6,33.7-46.8L499.8,158.3z M466.2,374.8h-58c-5.3,0-19.2,0-19.2-32.6l-0.1-183.9
		c0-32.6,13.9-32.6,19.2-32.6H466c4.8,0,19.5,0,19.5,32.6l0.1,183.9C485.7,374.8,471,374.8,466.2,374.8z"/>
</g>
</svg>
