<?xml version="1.0" encoding="UTF-8"?>
<svg xmlns="http://www.w3.org/2000/svg" viewBox="0 0 500 500"><path fill="#006aff" fill-rule="evenodd" d="M404.5 427.4c16.2 0 21.4-5 21.4-20.6 0-15.6-5.2-20.6-21.4-20.6s-21.4 5.1-21.4 20.6c.1 15.6 5.3 20.6 21.4 20.6zm0-61.7c27 0 42.8 13.2 42.8 41.2s-15.7 41.2-42.8 41.2c-27 0-42.7-13.1-42.7-41.2s15.7-41.2 42.7-41.2zM98.9 426.4c16.2 0 21.4-5 21.4-20.6 0-15.6-5.2-20.6-21.4-20.6s-21.4 5-21.4 20.6c0 15.6 5.2 20.6 21.4 20.6zm0-61.7c27 0 42.7 13.2 42.7 41.2s-15.7 41.2-42.7 41.2c-27 0-42.7-13.2-42.7-41.2 0-28.1 15.7-41.2 42.7-41.2zm304 104.5c46.3 0 65.2-18.4 65.2-62.8 0-44.7-18.8-63.1-65.2-63.1-46.3 0-65.4 18.3-65.4 63.1 0 44.4 19.1 62.8 65.4 62.8zM229.7 258.5c8 0 12.6-4 12.6-12.5 0-8.2-4.6-12.2-12.6-12.2-8.3 0-12.9 4-12.9 12.2-.1 8.5 4.5 12.5 12.9 12.5zM97.4 467.4c46.3 0 65.2-18.1 65.2-62.8 0-44.7-18.8-63.1-65.2-63.1S32 359.8 32 404.6c0 44.6 19 62.8 65.4 62.8zm305.5-155c61.6 0 97.2 29.9 97.2 93.9 0 63.9-35.7 93.7-97.2 93.7-61.6 0-97.4-29.9-97.4-93.7 0-12.3 1.9-23.1 4.5-32.7-16.4-40.8-40.4-63.3-71.3-67.3-4.5 1.4-9.2 3.5-13.2 6-14.1 8.9-26.3 23.9-38.4 47.2 0 .2-.2.2-.2.4 5.1 12.6 7.9 27.2 7.9 44.7 0 63.8-35.9 93.7-97.2 93.7C36 498.3.2 468.4.2 404.6c0-63.8 35.9-93.9 97.4-93.9 7.5 0 14.7.6 21.6 1.4.4-.4.4-1 .9-1.4l47.8-46L47 148.3c-23.6-22.8-38-46-42.7-68.8-5.8-27.4 3-53.4 25.4-74.8 6.2-6.2 16.4-6.2 22.6-.2l193.6 185L437.6 4.7c6.4-6.2 16.4-6.2 22.6 0 22.4 21.4 31.2 47.4 25.4 74.8-4.7 22.8-19 46-42.7 68.8L323 263.4l53.7 51.3c8.2-1.3 16.8-2.3 26.2-2.3z" clip-rule="evenodd" style="fill: #58617a;"/></svg>
