<?xml version="1.0" encoding="utf-8"?>
<!-- Generator: Adobe Illustrator 24.3.0, SVG Export Plug-In . SVG Version: 6.00 Build 0)  -->
<svg version="1.1" id="Capa_1" xmlns="http://www.w3.org/2000/svg" xmlns:xlink="http://www.w3.org/1999/xlink" x="0px" y="0px"
	 viewBox="0 0 500 500" style="enable-background:new 0 0 500 500;" xml:space="preserve">
<style type="text/css">
	.st0{fill-rule:evenodd;clip-rule:evenodd;fill:#006AFF;}
</style>
<path class="st0" d="M460.1,131.1c0,0,1.8-0.3,1.8-7.3c0-6.6-2.3-8.5-2.3-8.5c-1.1-0.9-3.5-1.4-11.5-1.4H52.6
	c-7.6,0-9.3-0.4-12.2,2.3c-0.1,0-1.7,1.8-1.6,8.3c0.1,6.1,2.9,7.8,2.9,7.8c1.6,1.1,2.3,1.9,10.3,1.9h395.6
	C455,134.3,459.5,132,460.1,131.1L460.1,131.1z M440.4,374.7V159.6c0.1-1.7-0.6-3.3-1.8-4.5c-1.4-1.3-3.8-1.6-6.8-2.1h-364
	c-4.5,0.8-8.2,3.3-8.2,6.5V375c0,1.6,0.6,3.2,2,4.3c1.8,1.6,4.9,2.2,9,2.2l359.8,0.2C435.5,381.7,440.4,378.5,440.4,374.7
	L440.4,374.7z M261.4,470.6c0-3,0-10.7-10.7-10.8h-1.8c-10.4,0-10.4,7.8-10.4,10.8c0,2.8,0,10.8,10.5,10.8
	C261.4,481.3,261.4,473.6,261.4,470.6z M235.8,56.2l-73.4,39.1h171.2l-68.5-39.4c-4.3,2.1-9.2,3.2-13.9,3.3h-2.1
	C244.5,59,240,58,235.8,56.2z M248.9,18.6c-10.4,0-10.4,7.8-10.4,10.9c0,3.1,0,10.8,10.7,11c12.1-0.1,12.1-8,12.1-10.8
	c0-3,0-10.8-10.7-11C250.7,18.6,248.9,18.6,248.9,18.6z M473.6,102.9c3.5,3.3,5.6,7.8,5.6,12.3v17.6c0,9.3-8.4,16.4-20.9,19.1
	c0.8,2.4,1.6,4.8,1.6,7.5v215.4c0,14.2-13.2,25.6-29.7,25.6H259.9v42.3c11.7,3.2,21.1,12.3,21.1,28c0,20-15,29.3-29.6,29.5h-2.6
	c-14.7-0.2-29.7-9.3-29.7-29.5c0-16.2,9.8-25.4,21.3-28.4v-41.8L71,400.2c-11.3,0.8-18.9-3.7-22.8-7.3c-5.1-4.6-8-11.1-8-17.9V159.5
	c0-2.6,0.8-5.3,1.6-7.5c-6.3-1.3-11.5-3.3-15-6.7c-3.6-3.1-5.7-7.6-5.9-12.3l0.2-17.6c0-11.7,13.3-20.1,31.7-20.1h69.7l99.4-52.9
	c-1.7-4.1-2.6-8.5-2.6-12.9c0-20.2,15-29.3,29.9-29.5h2.3C266,0.4,281,9.8,281,29.7c0,4.5-0.8,8.6-2.3,12.2l92.7,53.5h75.2
	C458.4,94.9,467.7,97.6,473.6,102.9L473.6,102.9z M339.1,326.2c5.3,0,9.8,4.3,9.8,9.3c-0.1,5.3-4.5,9.5-9.8,9.3h-205
	c-5.3,0.1-9.6-4.1-9.8-9.3V210.9c0-5.1,4.5-9.3,9.8-9.3c5.3-0.1,9.6,4.1,9.8,9.3v100.5l33-49.2c2.5-3.9,7.4-5.5,11.7-3.8l67,24.8
	l44.9-54.2H287c-5.2,0.1-9.6-3.9-9.8-9.1c0-0.1,0-0.1,0-0.2c0-5.3,4.3-9.3,9.8-9.3h34.7c4.7,0,8.8,3.3,9.6,7.8l4.7,30.1
	c1,5-2.7,9.7-8.2,10.6h-1.4c-4.7,0-9-3.3-9.6-7.8l-1.5-9.7l-49,58.9c-2.7,3.3-7.2,4.4-11.1,3l-66.2-24.6l-32,47.5H339.1z"/>
</svg>
