<?xml version="1.0" encoding="UTF-8"?>
<!-- Generator: Adobe Illustrator 24.3.0, SVG Export Plug-In . SVG Version: 6.00 Build 0)  -->
<svg xmlns="http://www.w3.org/2000/svg" xmlns:xlink="http://www.w3.org/1999/xlink" version="1.1" id="Capa_1" x="0px" y="0px" viewBox="0 0 500 500" style="enable-background:new 0 0 500 500;" xml:space="preserve">
<style type="text/css">
	.st0{fill-rule:evenodd;clip-rule:evenodd;fill:#006AFF;}
</style>
<desc>Created with sketchtool.</desc>
<g id="Page-1">
	<g id="Sábana-de-iconos-Copy" transform="translate(-749.000000, -364.000000)">
		<path id="ic_delete_regular" class="st0" d="M1166.2,781.2V499H831.8v282.6c-0.1,1.1-1.1,23.5,12.7,38.1    c8.6,9.1,21.8,13.7,39.2,13.7H1114c0.9,0,23.8,0.6,38.7-13.7C1161.7,811,1166.2,798,1166.2,781.2z M909.9,422.4v46H1088v-45.8    c0.2-4.7-0.5-15.9-6.5-22.2c-3.6-3.9-9.1-5.8-16.7-5.8L933,394.7c-1.4-0.1-10-0.6-15.9,4.8C912.4,403.9,909.9,411.6,909.9,422.4z     M1233.7,468.5c8.5,0,15.3,6.8,15.3,15.3s-6.8,15.3-15.3,15.3h-37v282.2c0,25.6-7.8,46-23,60.7c-21.7,20.8-51.3,22.1-58.7,22.1    c-0.9,0-1.5,0-1.6-0.1H883.7c-26.3,0-47.1-7.9-61.6-23.5c-22.8-24.4-20.8-58.5-20.7-59.9L801.3,499h-37c-8.5,0-15.3-6.8-15.3-15.3    s6.8-15.3,15.3-15.3h115.1v-46c0-19.9,5.8-35.3,17.4-45.7c15.7-14.2,35.5-12.8,37.7-12.5l130.3-0.1c20.4,0,32.6,8.5,39.1,15.6    c16,17.1,14.8,41.3,14.7,44l0.1,44.7L1233.7,468.5L1233.7,468.5z M946.9,759.8c-8.5,0-15.3-6.8-15.3-15.3V588    c0-8.5,6.8-15.3,15.3-15.3c8.4,0,15.3,6.8,15.3,15.3v156.5C962.1,753,955.3,759.8,946.9,759.8z M1051.1,759.8    c-8.5,0-15.3-6.8-15.3-15.3V588c0-8.5,6.8-15.3,15.3-15.3c8.4,0,15.3,6.8,15.3,15.3v156.5C1066.4,753,1059.6,759.8,1051.1,759.8z" style="fill: #58617a;"/>
	</g>
</g>
</svg>
