<?xml version="1.0" encoding="utf-8"?>
<!-- Generator: Adobe Illustrator 24.3.0, SVG Export Plug-In . SVG Version: 6.00 Build 0)  -->
<svg version="1.1" id="Capa_1" xmlns="http://www.w3.org/2000/svg" xmlns:xlink="http://www.w3.org/1999/xlink" x="0px" y="0px"
	 viewBox="0 0 500 500" style="enable-background:new 0 0 500 500;" xml:space="preserve">
<style type="text/css">
	.st0{fill-rule:evenodd;clip-rule:evenodd;fill:#015d8e;}
</style>
<path class="st0" d="M426,420.5V127.3H74.2v293.7c0,1.1-1.4,26,14.3,42.4c9.8,10.4,24.5,15.8,43.7,15.8h235.1
	c0.9,0,26.4,0.9,43.3-15.6C420.8,453.8,426,439.2,426,420.5L426,420.5z M154.1,54.3v52.1h192.1v-52c0-0.9,0.9-16.6-8.1-26.2
	c-4.8-5.2-11.7-7.5-21-7.5H182.6c-1.1,0-11.9-0.9-19.6,6.3C156.9,32.5,154,41.6,154.1,54.3L154.1,54.3z M489.6,106.5
	c5.8,0.4,10.1,5.3,9.7,11c-0.4,5.3-4.5,9.4-9.7,9.7h-42.8v293.2c0,24.8-7.5,44.3-22.1,58.2c-20.6,20-49.1,21.2-56.1,21.2H132.3
	c-25.4,0-45.1-7.5-59-22.5c-21.8-23.3-19.8-55.9-19.8-57.2v-293h-43c-5.8-0.4-10.1-5.3-9.7-11c0.4-5.3,4.5-9.4,9.7-9.7h122.9V54.3
	c0-18.9,5.2-33.3,15.8-42.8c14.8-13.1,33.7-11.5,34.5-11.5H317c15.4,0,27.5,4.8,36.2,14.2C368.4,30.4,367,54.3,367,55.3v51.2
	L489.6,106.5L489.6,106.5z M196.8,393.6c-5.8,0-10.4-4.6-10.4-10.4V223.5c0.4-5.8,5.3-10.1,11-9.7c5.3,0.4,9.4,4.5,9.7,9.7v159.8
	C207.2,389,202.5,393.6,196.8,393.6L196.8,393.6z M303.3,393.6c-5.8,0-10.4-4.6-10.4-10.4V223.5c0.4-5.8,5.3-10.1,11-9.7
	c5.3,0.4,9.4,4.5,9.7,9.7v159.8C313.7,389,309,393.6,303.3,393.6L303.3,393.6z"/>
</svg>
