<?xml version="1.0" encoding="UTF-8"?>
<!-- Generator: Adobe Illustrator 24.3.0, SVG Export Plug-In . SVG Version: 6.00 Build 0)  -->
<svg xmlns="http://www.w3.org/2000/svg" xmlns:xlink="http://www.w3.org/1999/xlink" version="1.1" id="Capa_1" x="0px" y="0px" viewBox="0 0 500 500" style="enable-background:new 0 0 500 500;" xml:space="preserve">
<style type="text/css">
	.st0{fill-rule:evenodd;clip-rule:evenodd;fill:#006AFF;}
</style>
<desc>Created with sketchtool.</desc>
<g id="Page-1">
	<g id="Sábana-de-iconos-Copy" transform="translate(-600.000000, -1294.000000)">
		<path id="ic_doccheck" class="st0" d="M1079.2,1763.5v-302h-65.2c-24.8,0-46.2-8-61.8-23.2c-15.8-15.2-24.1-36.1-24.1-60.4V1315    H754c-4.8,0-10.4,5.2-10.4,9.6v107.3c27.7,1.6,44.7,13.2,59.9,23.2c16.6,11.1,29.5,19.8,54.7,16.1c3.1-0.6,6.5,0.2,8.8,2.3    c2.3,1.9,3.7,4.8,3.7,7.8c0.2,2.1,0.2,28.5-0.8,59.3h142.9c5.8,0,10.4,4.6,10.4,10.5c0,5.7-4.6,10.5-10.4,10.5H869.3    c-0.9,19.4-2.1,39.1-4,54.4h148.1c5.8,0,10.4,4.6,10.4,10.5c0,5.6-4.6,10.5-10.4,10.5H861c-7.3,19.4-25,38.1-44.7,53.7h197.3    c5.8,0,10.4,4.6,10.4,10.5c0,5.7-4.6,10.5-10.4,10.5H786.8c-18.7,11.9-35.4,20.5-43.3,24.5v27.8c0,4.6,5.2,9.6,10.4,9.6h315    C1074.2,1773.1,1079.2,1768.2,1079.2,1763.5z M627.7,1622.5c6.3,36.4,76.1,78,107.8,93.6c11-5.4,26.5-14,42.5-24.3    c30-19.6,61.2-45.6,65.3-69.4c5.6-32.6,6.6-102.6,6.6-130c-26.4,1.3-42.4-9.8-57.8-20.1c-15.6-10.5-30.4-20.3-56.6-20.3h-0.2    c-26.3,0-40.8,9.8-56.4,20.3c-15.8,10.5-32,21.6-58.1,20.3C621,1520.4,622.1,1590.2,627.7,1622.5z M1073.7,1440.6l-124.9-121.2    v58.6c0,18.4,6.3,34.1,17.9,45.4c11.7,11.5,28.1,17.4,47.2,17.4L1073.7,1440.6L1073.7,1440.6z M1094.8,1431.9    c3.3,3.1,5.2,7.7,5.2,12.3v319.2c0,16.5-14.2,30.5-31,30.5H754c-16.6,0-31.2-14.4-31.2-30.5v-30.1    c-27.2-13.8-107.4-58.6-115.7-107.3c-7.3-42.4-7-140.9-7-145.1c0-3.1,1.4-6.3,4-8.1c2.5-1.9,5.8-2.7,9-1.9    c24.8,4,37.8-5,54.3-16.1c14.4-9.6,30.6-20.3,55.6-22.8v-107.6c0-15.9,14.8-30.5,31.2-30.5h191.7c4.6,0,9,1.6,12.3,4.8    L1094.8,1431.9z M718.2,1636.5c-2.6,0-5.3-1-7.4-3.1l-38-38.1c-4.1-4.1-4.1-10.7,0-14.8c4.1-4.1,10.7-4.1,14.7,0l30.7,30.7    l77.2-77.5c4.1-4.1,10.7-4.1,14.7,0c4.1,4.1,4.1,10.7,0,14.8l-84.6,84.9C723.5,1635.5,720.8,1636.5,718.2,1636.5z" style="fill: #58617a;"/>
	</g>
</g>
</svg>
