<?xml version="1.0" encoding="UTF-8"?>
<!-- Generator: Adobe Illustrator 24.3.0, SVG Export Plug-In . SVG Version: 6.00 Build 0)  -->
<svg xmlns="http://www.w3.org/2000/svg" xmlns:xlink="http://www.w3.org/1999/xlink" version="1.1" id="Capa_1" x="0px" y="0px" viewBox="0 0 500 500" style="enable-background:new 0 0 500 500;" xml:space="preserve">
<style type="text/css">
	.st0{fill:#006AFF;}
</style>
<g id="Artwork">
	<path class="st0" d="M249.8,499.6L249.8,499.6c-7.1,0-13.9-3.1-18.4-8.5L6.6,258.7c-0.3-0.3-0.5-0.6-0.8-0.9   c-6.3-7.8-7.6-18.4-3.3-27.4c4-8.7,12.6-14.2,22.1-14.2h100V48.4c0-26.7,21.7-48.4,48.4-48.4h153.3c26.8,0,48.4,21.6,48.4,48.4   l-0.1,167.7h100.7c9.5,0,18.2,5.6,22.2,14.2c4.3,9,3.1,19.7-3.3,27.4c-0.2,0.3-0.5,0.6-0.8,0.9L268.3,491.1   C263.7,496.5,256.9,499.6,249.8,499.6z M30.8,243.8l219.1,226.6l219.7-226.6h-97.7c-13.6,0-24.7-11.4-24.7-25.4l0.1-170   c0-11.5-9.3-20.8-20.7-20.8l0,0H173.2c-11.5,0-20.7,9.3-20.7,20.7v170c0,14-11.1,25.4-24.7,25.4L30.8,243.8L30.8,243.8z    M475.6,243.8L475.6,243.8z" style="fill: #58617a;"/>
</g>
</svg>
