<svg width="500" height="500" xmlns="http://www.w3.org/2000/svg" xmlns:xlink="http://www.w3.org/1999/xlink" xml:space="preserve"><style>.st0{fill-rule:evenodd;clip-rule:evenodd;fill:#006aff}</style><defs><symbol id="svg_9" viewBox="0 0 500 500" xml:space="preserve" xmlns="http://www.w3.org/2000/svg" xmlns:xlink="http://www.w3.org/1999/xlink"><g id="svg_6"><g id="svg_7" transform="translate(-1043 -1065)"><path class="st0" d="M1235.7 1534.5v-111.6c0-8.5 6.8-15.3 15-15.3h84.5c8.3 0 15 6.8 15 15.3v111.5h95.2c2.5 0 5-2.8 5-4.4v-430.1c-.1-1.5-3.1-4.4-5-4.4h-305c-1.9 0-4.9 2.8-5 4.4V1530c0 1.6 2.6 4.4 5 4.4l95.3.1zm209.8 30.6h-305c-18.7 0-35.1-16.4-35.1-35V1100c0-18.4 16.7-35 35.1-35h305c18.4 0 35.1 16.7 35.1 35v430.1c-.1 18.6-16.4 35-35.1 35zm-179.7-31.4h54.4v-95.5h-54.4v95.5zm-53.6-339h33.9v-34.5h-33.9v34.5zm49.1 30.6h-64.1c-8.3 0-15-6.8-15-15.3v-65.1c0-8.5 6.8-15.3 15-15.3h64.1c8.3 0 15 6.8 15 15.3v65.1c0 8.5-6.8 15.3-15 15.3zm77.5-30.6h33.9v-34.5h-33.9v34.5zm49 30.6h-64.1c-8.3 0-15-6.8-15-15.3v-65.1c0-8.5 6.8-15.3 15-15.3h64.1c8.3 0 15 6.8 15 15.3v65.1c0 8.5-6.7 15.3-15 15.3zm-175.6 97.3h33.9V1288h-33.9v34.6zm49.1 30.6h-64.1c-8.3 0-15-6.8-15-15.3v-65.1c0-8.5 6.8-15.3 15-15.3h64.1c8.3 0 15 6.8 15 15.3v65.1c0 8.4-6.8 15.3-15 15.3zm77.5-30.6h33.9V1288h-33.9v34.6zm49 30.6h-64.1c-8.3 0-15-6.8-15-15.3v-65.1c0-8.5 6.8-15.3 15-15.3h64.1c8.3 0 15 6.8 15 15.3v65.1c0 8.4-6.7 15.3-15 15.3z" id="svg_8"/></g></g></symbol></defs><g class="layer"><path class="st0" d="M52.9 88.5c.1 39.8 1.4 167.8 11.5 225.8C77 387.4 222.9 463.7 250.6 477.5c27.7-13.9 173.8-90.2 186.4-163.2 9.9-58.1 11.1-186.5 11.2-226-46.2 3.6-73.2-14.5-99.6-32.1-25.6-17.1-52.2-34.9-98-34.9h-.1c-45.8 0-72.4 17.7-98 34.9C125.7 74 98.2 92.3 52.9 88.5zM250.5 500c-1.6 0-3.1-.4-4.6-1-7.5-3.6-186.7-90-202.4-181C31.2 247.4 31.7 83.4 31.7 76.4c-.1-5.8 4.6-10.5 10.5-10.6.9 0 1.8.1 2.6.3 44.2 7 68.2-9 96-27.6C167.8 20.4 198.3 0 250.4 0h.2c52.1.1 82.7 20.5 109.6 38.5 27.7 18.6 51.7 34.6 96.1 27.7 3.1-.5 6.3.4 8.8 2.3 2.4 1.9 3.9 4.8 4.1 7.9 0 7 .4 171-11.6 241.6-15.7 91.1-195 177.4-202.6 181-1.4.6-2.9 1-4.5 1z" id="svg_1"/><use id="svg_10" transform="translate(-117.14 -237.881) scale(.55393)" x="415.2" xlink:href="#svg_9" y="620.92"/></g></svg>