<?xml version="1.0" encoding="UTF-8"?>
<!-- Generator: Adobe Illustrator 24.3.0, SVG Export Plug-In . SVG Version: 6.00 Build 0)  -->
<svg xmlns="http://www.w3.org/2000/svg" xmlns:xlink="http://www.w3.org/1999/xlink" version="1.1" id="Capa_1" x="0px" y="0px" viewBox="0 0 500 500" style="enable-background:new 0 0 500 500;" xml:space="preserve">
<style type="text/css">
	.st0{fill:#006AFF;}
</style>
<path class="st0" d="M500.1,69.7c-0.2-18.4-7.5-36.1-20.3-49.4C467.3,8.2,451,1,433.6,0c-19.1-0.6-37.7,6.7-51.2,20.3l-13.8,12.6  H105.9C40.7,32.3,0.1,70.6,0.1,131.8v270c-1.4,26.4,8.6,52.2,27.3,70.9c21.6,19.2,50,29,78.8,27.3h235.3c29,1.8,57.4-8.1,79.1-27.3  c18.8-18.7,28.7-44.5,27.4-70.9V147.1l31.5-29.4C492.4,105.1,499.8,87.8,500.1,69.7L500.1,69.7z M418.3,401.7  c1.1,18.4-5.6,36.4-18.2,49.7c-16.4,13.7-37.5,20.6-58.8,19.1H105.9c-21.3,1.6-42.5-5.3-58.8-19.1c-12.5-13.4-18.9-31.4-17.6-49.7  V131.8c0-43.5,27.3-70,76.8-70h230L221.5,162.9c-3.9,3.6-7,8.2-8.8,13.2l-27,80.8c-3.9,11-1.1,23.1,7.3,31.2  c5.6,5.9,13.4,9.2,21.5,9.1c3.2,0.4,6.5,0.4,9.7,0l81.2-26.8c3.9-1.4,7.5-3.4,10.6-6.2c0,0,56.1-49.4,102-90.5L418.3,401.7  L418.3,401.7z M212.4,266.4l27.4-81.4c43.8-37.9,155.6-136.1,163.5-143.7c7.1-7.5,17-11.7,27.3-11.7h1.8c21.3,1.1,38.1,18.6,38.2,40  c-0.1,10.3-4.3,20.1-11.7,27.3c-8.8,8.3-141.7,125.9-162.7,144.4L215.1,268C215.1,267.9,212.4,266.4,212.4,266.4z" style="fill: #58617a;"/>
</svg>
