<?xml version="1.0" encoding="utf-8"?>
<!-- Generator: Adobe Illustrator 24.3.0, SVG Export Plug-In . SVG Version: 6.00 Build 0)  -->
<svg version="1.1" id="Capa_1" xmlns="http://www.w3.org/2000/svg" xmlns:xlink="http://www.w3.org/1999/xlink" x="0px" y="0px"
	 viewBox="0 0 500 500" style="enable-background:new 0 0 500 500;" xml:space="preserve">
<style type="text/css">
	.st0{fill-rule:evenodd;clip-rule:evenodd;fill:#006AFF;}
</style>
<path class="st0" d="M437.3,314.5c10-58.3,11.2-187.1,11.2-226.5c-46,4-73.4-14.4-99.8-32.1c-25.7-17.2-52.3-35-98.2-35h-0.1
	c-45.9,0-72.5,17.8-98.3,35c-26.7,17.7-54.6,35.9-99.7,32.2c0.1,39.6,1.4,168.1,11.5,226.2C76.5,387.7,223.1,464.2,250.5,478
	C278,464.2,424.7,387.7,437.3,314.5z M469.3,76.3c0,7,0.4,171-11.6,241.8l0,0C442,409,262.6,495.4,255,499c-2.8,1.4-6,1.4-8.8,0
	c-7.7-3.6-186.9-90-202.5-181C31.3,247.3,31.8,83.2,31.8,76.3c0.1-5.8,4.8-10.4,10.5-10.3c0.8,0,1.6,0.1,2.3,0.3
	c44.3,7,68.4-9.1,96.3-27.7C167.8,20.4,198.3,0,250.4,0h0.1c52.1,0.1,82.7,20.5,109.6,38.5c27.8,18.6,51.9,34.7,96.3,27.7
	c3.1-0.4,6.2,0.4,8.7,2.3C467.6,70.4,469.1,73.2,469.3,76.3z M345,171.7c4-4.1,10.5-4.1,14.5-0.1l0.1,0.1c4.1,4.1,4.1,10.7,0,14.7
	L219.1,328.3c-4,4.1-10.5,4.1-14.5,0.1l-0.1-0.1l-63.1-63.7c-4.1-4.1-4.1-10.7,0-14.7c4-4.1,10.5-4.1,14.5-0.1l0.1,0.1l55.8,56.3
	L345,171.7z"/>
</svg>
