<?xml version="1.0" encoding="utf-8"?>
<!-- Generator: Adobe Illustrator 24.3.0, SVG Export Plug-In . SVG Version: 6.00 Build 0)  -->
<svg version="1.1" id="Capa_1" xmlns="http://www.w3.org/2000/svg" xmlns:xlink="http://www.w3.org/1999/xlink" x="0px" y="0px"
	 viewBox="0 0 500 500" style="enable-background:new 0 0 500 500;" xml:space="preserve">
<style type="text/css">
	.st0{fill-rule:evenodd;clip-rule:evenodd;fill:#006AFF;}
</style>
<desc>Created with sketchtool.</desc>
<g id="Page-1">
	<g id="Sábana-de-iconos-Copy" transform="translate(-917.000000, -2464.000000)">
		<path id="ic_shieldcheck_regular" class="st0" d="M1345,2776.3c9.2-54.2,10.7-171.5,11-215.4c-42.7,2.1-69.4-15.6-95.3-32.9
			c-25.6-17.1-49.8-33.4-93.1-33.4h-0.1c-43.3,0-67.5,16.2-93.2,33.4c-25.8,17.2-52.2,34.9-95.2,32.9c0.2,43.9,1.7,161.1,11.1,215.4
			c10.5,60.6,125.9,129.8,177.4,155.4C1219,2906,1334.6,2836.7,1345,2776.3z M1386.3,2543.8c0,6.8,0.5,168-11.4,237.8l0,0
			c-15.8,91.7-193.3,177.4-200.8,181.1c-2.1,1-4.3,1.4-6.5,1.4s-4.4-0.5-6.5-1.5c-7.5-3.6-184.9-89.4-200.7-181
			c-12.1-69.7-11.7-230.9-11.6-237.8c0-4.7,2.2-9.1,5.8-12c3.7-2.9,8.5-3.8,12.9-2.8c41,6.5,62.6-8.1,90-26.5
			c27-18.1,57.5-38.5,109.9-38.5h0.2c52.4,0.1,82.9,20.5,109.8,38.6c27.4,18.4,49.1,32.9,90.6,26.4c4.3-0.7,9.2,0.5,12.5,3.4
			C1383.9,2535.1,1386.2,2539.3,1386.3,2543.8z M1129.7,2761.8l126.6-128.1c5.9-6,15.5-6,21.4,0c5.9,6,5.9,15.7,0,21.6l-137.2,138.9
			c-2.8,2.8-6.7,4.5-10.7,4.5s-7.9-1.6-10.7-4.5l-61.6-62.4c-5.9-6-5.9-15.7,0-21.6s15.5-6,21.4,0L1129.7,2761.8z"/>
	</g>
</g>
</svg>
