<?xml version="1.0" encoding="UTF-8"?>
<!-- Generator: Adobe Illustrator 24.3.0, SVG Export Plug-In . SVG Version: 6.00 Build 0)  -->
<svg xmlns="http://www.w3.org/2000/svg" xmlns:xlink="http://www.w3.org/1999/xlink" version="1.1" id="Capa_1" x="0px" y="0px" viewBox="0 0 500 500" style="enable-background:new 0 0 500 500;" xml:space="preserve">
<style type="text/css">
	.st0{fill-rule:evenodd;clip-rule:evenodd;fill:#006AFF;}
</style>
<path class="st0" d="M396.8,470c5.9,0,10.2-3.2,10.8-4.3l-0.2-396.2c0,0.4-4.9-3.3-10.6-3.3h-67.2c0.1,0.7,0.2,1.4,0.3,2.1l0.1,2  l0.1,2.9l-0.1,2.7c-1.3,38.3-39.2,43.8-79.9,43.8s-78.5-5.4-80-44.4v-2.1l0.1-3.2l0.1-2.6c0-0.5,0.1-0.9,0.2-1.4h-67.3  c-5.5,0-10.1,3.3-10.9,4.7l0.3,395.9c0.4,0.1,4.7,3.3,10.6,3.3C103.1,470,396.8,470,396.8,470z M250,30c-42.5,0-48.9,21.3-49.7,39.8  l-0.1,3.6c0.3,6.8,0.6,16.6,49.9,16.6s49.6-9.7,49.8-15.6v-3c-0.1-5.4-0.9-10.7-2.5-15.9l0,0C295.3,49.1,289.3,30,250,30z   M396.8,36.4c21.7,0,40.7,15.5,40.7,33.2v397.3c0,18-18.6,33.2-40.7,33.2H103.1c-22.1,0-40.7-15.2-40.7-33.2V69.4  c0-17.6,19.1-33.2,40.7-33.2h75.1C190.2,13.1,214.8,0,250,0c42.8,0,62.7,18,71.9,36.4H396.8z M232.3,79.5c-7.8,0-14-6.3-14-13.9l0,0  c0-7.7,6.3-13.9,14-13.9h35.4c7.8,0,14.1,6.3,14.1,13.9c0,7.7-6.3,13.9-14.1,13.9H232.3z" style="fill: #58617a;"/>
</svg>
