<?xml version="1.0" encoding="utf-8"?>
<!-- Generator: Adobe Illustrator 24.3.0, SVG Export Plug-In . SVG Version: 6.00 Build 0)  -->
<svg version="1.1" id="Capa_1" xmlns="http://www.w3.org/2000/svg" xmlns:xlink="http://www.w3.org/1999/xlink" x="0px" y="0px"
	 viewBox="0 0 500 500" style="enable-background:new 0 0 500 500;" xml:space="preserve">
<style type="text/css">
	.st0{fill-rule:evenodd;clip-rule:evenodd;fill:#006AFF;}
</style>
<path class="st0" d="M437.3,314.4c10-58.3,11.2-187,11.3-226.4c-45.9,3.8-73.4-14.4-99.8-32.2c-25.7-17.2-52.3-34.9-98.2-35h-0.1
	c-46,0-72.5,17.8-98.3,35C125.5,73.6,98,91.8,52.4,88.1c0.1,39.6,1.4,168,11.5,226.3C76.5,387.7,223,464.2,250.4,478
	C278,464.2,424.7,387.6,437.3,314.4z M469.3,76.3c0,7,0.4,171-11.6,241.8C442,409,262.6,495.4,255,499c-2.8,1.4-6,1.4-8.8,0
	c-7.7-3.6-186.9-90.1-202.5-181C31.3,247.3,31.7,83.2,31.8,76.3c0-3.1,1.4-6.1,3.9-8.1c2.4-1.9,5.6-2.7,8.7-2
	c44.5,6.8,68.7-9.1,96.5-27.7C167.8,20.4,198.4,0,250.4,0h0.1c52.1,0.1,82.7,20.5,109.6,38.5c27.8,18.6,51.7,34.7,96.3,27.7
	c3.1-0.5,6.3,0.3,8.7,2.3C467.6,70.4,469.1,73.2,469.3,76.3z M250.5,330.3c39.1,0,50.3-15.1,50.3-67.3c0-32.7-4.9-50.4-16.2-59
	c-7.4-5.5-18.6-8.3-34.1-8.3c-15.7,0-26.9,2.8-34.3,8.5c-11.2,8.7-16,26.3-16,58.8C200.2,315.2,211.5,330.3,250.5,330.3L250.5,330.3
	z M250.6,157.4c-34.8,0-34.8,8.6-34.8,18.6c0,1.8,0.1,3.3,0.4,4.7c9.4-3.8,20.6-5.9,34.4-5.9c13.8,0,25.1,2.1,34.5,5.9
	c0.2-1.4,0.4-2.9,0.4-4.8C285.4,166.1,285.4,157.4,250.6,157.4z M339.9,243.3c5.7,0,10.3,4.7,10.3,10.4V273
	c0,5.8-4.6,10.4-10.3,10.4c-5.8,0-10.4-4.7-10.3-10.4l0,0v-8.9h-8c-0.1,16.9-1.6,31.7-5.3,44.3l20.5,6.3c4.6,1.4,7.5,5.8,7.3,10.5
	l-1.5,29c-0.3,5.5-4.8,9.9-10.3,9.9h-0.6c-5.7-0.4-10.1-5.3-9.8-11l1.1-20.9l-15.4-4.7c-10.5,14.9-28,23.5-57,23.5
	c-29,0-46.7-8.7-57.1-23.7l-15.8,4.8l1.1,20.9c0.3,5.7-4.1,10.6-9.7,11h-0.6c-5.5,0-10-4.3-10.3-9.9l-1.5-29
	c-0.3-4.8,2.8-9.1,7.3-10.5l21-6.4c-3.7-12.6-5.2-27.3-5.3-44.2h-8v8.9c0,5.8-4.6,10.4-10.3,10.4c-5.8,0-10.4-4.7-10.3-10.4l0,0
	v-19.3c0-5.8,4.6-10.4,10.3-10.4h19.1c0.9-13.1,3.5-25.8,8.7-36.7l-25-7.7c-4.6-1.4-7.6-5.8-7.3-10.5l1.4-29
	c0.3-5.8,5.3-10.4,10.9-9.9c5.7,0.3,10,5.2,9.7,11l-1.1,20.8l18.8,5.8c-0.9-3.6-1.3-7.3-1.3-11.1c0-24.8,14.7-33.9,30.1-37.4
	l-1.8-1.8c-4.1-4.1-4.1-10.7,0-14.7c4-4.1,10.5-4.1,14.4-0.1c0.1,0.1,0.1,0.1,0.1,0.1l9.5,9.5c1.3,1.4,2.2,3.1,2.6,5h0.2
	c0.4-1.8,1.3-3.6,2.6-5l9.4-9.5c4-4.1,10.5-4.1,14.4-0.1c0.1,0.1,0.1,0.1,0.1,0.1c4.1,4.1,4.1,10.7,0,14.7l-1.7,1.7
	c15.7,3.3,30.9,12.4,30.9,37.6c0,4-0.5,7.5-1.3,10.8l18.1-5.5l-1.1-20.8c-0.3-5.7,4.1-10.6,9.7-11c5.6-0.4,10.5,3.9,10.8,9.5
	c0,0.1,0,0.2,0,0.3l1.6,29c0.3,4.8-2.7,9.1-7.3,10.5l-24.6,7.5c5.3,10.9,7.8,23.7,8.8,36.8C320.8,243.3,339.9,243.3,339.9,243.3z
	 M249.7,221.8c5.7,0,10.3,4.7,10.3,10.4v72.2c0,5.8-4.6,10.4-10.3,10.4c-5.8,0-10.4-4.7-10.3-10.4l0,0v-72.1
	C239.4,226.5,244,221.8,249.7,221.8L249.7,221.8z"/>
</svg>
