<?xml version="1.0" encoding="UTF-8"?>
<svg xmlns="http://www.w3.org/2000/svg" viewBox="0 0 500 500"><path fill="#006aff" fill-rule="evenodd" d="M437.3 314.4c10-58.3 11.2-187 11.3-226.4-45.9 3.8-73.4-14.4-99.8-32.2-25.7-17.2-52.3-34.9-98.2-35h-.1c-46 0-72.5 17.8-98.3 35-26.7 17.8-54.2 36-99.8 32.3.1 39.6 1.4 168 11.5 226.3C76.5 387.7 223 464.2 250.4 478c27.6-13.8 174.3-90.4 186.9-163.6zm32-238.1c0 7 .4 171-11.6 241.8C442 409 262.6 495.4 255 499c-2.8 1.4-6 1.4-8.8 0-7.7-3.6-186.9-90.1-202.5-181-12.4-70.7-12-234.8-11.9-241.7 0-3.1 1.4-6.1 3.9-8.1 2.4-1.9 5.6-2.7 8.7-2 44.5 6.8 68.7-9.1 96.5-27.7C167.8 20.4 198.4 0 250.4 0h.1c52.1.1 82.7 20.5 109.6 38.5 27.8 18.6 51.7 34.7 96.3 27.7 3.1-.5 6.3.3 8.7 2.3 2.5 1.9 4 4.7 4.2 7.8zm-218.8 254c39.1 0 50.3-15.1 50.3-67.3 0-32.7-4.9-50.4-16.2-59-7.4-5.5-18.6-8.3-34.1-8.3-15.7 0-26.9 2.8-34.3 8.5-11.2 8.7-16 26.3-16 58.8 0 52.2 11.3 67.3 50.3 67.3zm.1-172.9c-34.8 0-34.8 8.6-34.8 18.6 0 1.8.1 3.3.4 4.7 9.4-3.8 20.6-5.9 34.4-5.9 13.8 0 25.1 2.1 34.5 5.9.2-1.4.4-2.9.4-4.8-.1-9.8-.1-18.5-34.9-18.5zm89.3 85.9c5.7 0 10.3 4.7 10.3 10.4V273c0 5.8-4.6 10.4-10.3 10.4-5.8 0-10.4-4.7-10.3-10.4v-8.9h-8c-.1 16.9-1.6 31.7-5.3 44.3l20.5 6.3c4.6 1.4 7.5 5.8 7.3 10.5l-1.5 29c-.3 5.5-4.8 9.9-10.3 9.9h-.6c-5.7-.4-10.1-5.3-9.8-11l1.1-20.9-15.4-4.7c-10.5 14.9-28 23.5-57 23.5s-46.7-8.7-57.1-23.7l-15.8 4.8 1.1 20.9c.3 5.7-4.1 10.6-9.7 11h-.6c-5.5 0-10-4.3-10.3-9.9l-1.5-29c-.3-4.8 2.8-9.1 7.3-10.5l21-6.4c-3.7-12.6-5.2-27.3-5.3-44.2h-8v8.9c0 5.8-4.6 10.4-10.3 10.4-5.8 0-10.4-4.7-10.3-10.4v-19.3c0-5.8 4.6-10.4 10.3-10.4h19.1c.9-13.1 3.5-25.8 8.7-36.7l-25-7.7c-4.6-1.4-7.6-5.8-7.3-10.5l1.4-29c.3-5.8 5.3-10.4 10.9-9.9 5.7.3 10 5.2 9.7 11l-1.1 20.8 18.8 5.8c-.9-3.6-1.3-7.3-1.3-11.1 0-24.8 14.7-33.9 30.1-37.4l-1.8-1.8c-4.1-4.1-4.1-10.7 0-14.7 4-4.1 10.5-4.1 14.4-.1l.1.1 9.5 9.5c1.3 1.4 2.2 3.1 2.6 5h.2c.4-1.8 1.3-3.6 2.6-5l9.4-9.5c4-4.1 10.5-4.1 14.4-.1l.1.1c4.1 4.1 4.1 10.7 0 14.7l-1.7 1.7c15.7 3.3 30.9 12.4 30.9 37.6 0 4-.5 7.5-1.3 10.8l18.1-5.5-1.1-20.8c-.3-5.7 4.1-10.6 9.7-11 5.6-.4 10.5 3.9 10.8 9.5v.3l1.6 29c.3 4.8-2.7 9.1-7.3 10.5l-24.6 7.5c5.3 10.9 7.8 23.7 8.8 36.8 0 .2 19.1.2 19.1.2zm-90.2-21.5c5.7 0 10.3 4.7 10.3 10.4v72.2c0 5.8-4.6 10.4-10.3 10.4-5.8 0-10.4-4.7-10.3-10.4v-72.1c0-5.8 4.6-10.5 10.3-10.5z" clip-rule="evenodd" style="fill: #58617a;"/></svg>
