<?xml version="1.0" encoding="UTF-8"?>
<!-- Generator: Adobe Illustrator 24.3.0, SVG Export Plug-In . SVG Version: 6.00 Build 0)  -->
<svg xmlns="http://www.w3.org/2000/svg" xmlns:xlink="http://www.w3.org/1999/xlink" version="1.1" id="Capa_1" x="0px" y="0px" viewBox="0 0 500 500" style="enable-background:new 0 0 500 500;" xml:space="preserve">
<style type="text/css">
	.st0{fill-rule:evenodd;clip-rule:evenodd;fill:#006AFF;}
	.st1{fill:#006AFF;}
</style>
<path class="st0" d="M464.2,469.1c2.5,0,4.9-2.4,4.9-4.3V174.4h-58.8c-25.7,0-48-8.4-64.3-24.3c-16.5-16-25.3-37.8-25.3-63V30.9  h-166c-1.8,0-4.8,2.8-4.9,4.3v132.1h173.7c33.9,0.1,61.5,27.6,61.5,61.6v104c0,33.9-27.5,61.5-61.5,61.6H150.8l-0.9,70.6  c0,1.3,2.5,4.1,4.9,4.1L464.2,469.1L464.2,469.1z M30.8,332.9c0,16.9,13.7,30.7,30.7,30.7h262c16.9,0,30.7-13.8,30.7-30.7V228.9  c0-16.9-13.7-30.7-30.7-30.7h-262c-16.9,0-30.7,13.7-30.7,30.7L30.8,332.9L30.8,332.9z M456.2,143.6L351.7,42.4v44.8  c0,16.6,5.5,30.8,15.9,40.8c10.5,10.2,25.3,15.5,42.9,15.5C410.4,143.6,456.2,143.6,456.2,143.6z M498.8,146.3  c0.8,1.8,1.2,3.9,1.2,6v312.5c0,19.1-16.4,35.1-35.8,35.1H154.9c-19.1,0-35.8-16.4-35.8-35.1l0.9-70.4H61.5  C27.5,394.4,0,366.8,0,332.9V228.9c0-34,27.5-61.5,61.5-61.6H119V35.1C119,16.7,136.1,0,154.8,0h188.3c5.9,0,11.4,2.2,15.6,6.3  l134.5,130.3C496.1,139.2,497.7,142.6,498.8,146.3z" style="fill: #58617a;"/>
<g>
	<path class="st1" d="M72.7,282.7l-25.6-42h20l16.6,27.7l15.2-27.7h20.3l-27.4,41l26.7,42.8H97.3l-16.6-28.4l-15.1,28.4H45   L72.7,282.7z" style="fill: #58617a;"/>
	<path class="st1" d="M130.1,240.8h19.1v69.9h37.1v13.8H130L130.1,240.8L130.1,240.8z" style="fill: #58617a;"/>
	<path class="st1" d="M194.5,321.9l2.9-14.6c7.3,2.6,17,4.1,23.1,4.1c11.2,0,16.5-2.9,16.5-10.7c0-15.7-42.8-4.3-42.8-37.2   c0-17,13.4-24.5,31.2-24.5c8.1,0,16.9,1.2,23.4,3.4l-2.9,14.2c-6.8-1.8-14.2-2.9-20.1-2.9c-10.3,0-13.6,3.7-13.6,9   c0,16.4,42.8,5.1,42.8,37.8c0,7.5-2.6,13.4-7,17.6c-5.9,5.5-13.8,8-25.8,8C211.7,326.2,203,324.8,194.5,321.9z" style="fill: #58617a;"/>
	<path class="st1" d="M290.3,282.7l-25.6-42h20l16.6,27.7l15.2-27.7h20.3l-27.4,41l26.7,42.8h-21.2l-16.6-28.4l-15.1,28.4h-20.6   L290.3,282.7z" style="fill: #58617a;"/>
</g>
</svg>
