<?xml version="1.0" encoding="utf-8"?>
<!-- Generator: Adobe Illustrator 24.3.0, SVG Export Plug-In . SVG Version: 6.00 Build 0)  -->
<svg version="1.1" id="Capa_1" xmlns="http://www.w3.org/2000/svg" xmlns:xlink="http://www.w3.org/1999/xlink" x="0px" y="0px"
	 viewBox="0 0 500 500" style="enable-background:new 0 0 500 500;" xml:space="preserve">
<style type="text/css">
	.st0{fill-rule:evenodd;clip-rule:evenodd;fill:#006AFF;}
</style>
<desc>Created with sketchtool.</desc>
<g id="Page-1">
	<g id="Sábana-de-iconos-Copy" transform="translate(-558.000000, -2200.000000)">
		<path id="ic_focus" class="st0" d="M819.8,2625.4v-60.7c0-5.8-4.7-10.4-10.5-10.4c-5.8,0-10.5,4.6-10.5,10.4v60.8
			c-40-0.9-157.1-16.5-166.3-159.5h61.3c5.8,0,10.5-4.6,10.5-10.4s-4.7-10.4-10.5-10.4h-62c1.6-158.5,127.3-172.7,167-173.2v63.2
			c0,5.8,4.7,10.4,10.5,10.4s10.5-4.6,10.5-10.4v-63c42.3,1.6,164.7,19.6,167,172.9h-64.7c-5.8,0-10.5,4.7-10.5,10.4
			c0,5.8,4.7,10.4,10.5,10.4h64C977.3,2608.4,859.9,2624.3,819.8,2625.4 M1047.5,2445.2h-39.9c-2.4-176.4-152.2-192.4-187.9-193.8
			v-41c0-5.8-4.7-10.4-10.5-10.4s-10.5,4.6-10.5,10.4v40.8c-32.1,0.3-186.2,11.7-188,194h-42.5c-5.8,0-10.5,4.7-10.5,10.4
			s4.7,10.4,10.5,10.4h43.3c9.9,166,153.6,179.5,187.1,180.3v43.2c0,5.8,4.7,10.4,10.5,10.4c5.8,0,10.5-4.6,10.5-10.4v-43.3
			c33.6-0.9,177.8-14.9,187.2-180.3h40.5c5.8,0,10.5-4.6,10.5-10.4C1057.9,2449.9,1053.2,2445.2,1047.5,2445.2"/>
	</g>
</g>
</svg>
