<?xml version="1.0" encoding="utf-8"?>
<!-- Generator: Adobe Illustrator 24.3.0, SVG Export Plug-In . SVG Version: 6.00 Build 0)  -->
<svg version="1.1" id="Capa_1" xmlns="http://www.w3.org/2000/svg" xmlns:xlink="http://www.w3.org/1999/xlink" x="0px" y="0px"
	 viewBox="0 0 500 500" style="enable-background:new 0 0 500 500;" xml:space="preserve">
<style type="text/css">
	.st0{fill:#006AFF;}
</style>
<g id="Artwork">
	<path class="st0" d="M250,343.3c-29.7,0-52.7-7.8-68.5-23c-16.4-15.9-24.7-39.5-24.7-70.3s8.3-54.5,24.7-70.3
		c15.9-15.2,38.9-23,68.5-23s52.7,7.8,68.5,23c16.4,15.9,24.7,39.5,24.7,70.3s-8.3,54.5-24.7,70.3
		C302.7,335.6,279.6,343.3,250,343.3z M250,171c-25.8,0-45.6,6.4-58.7,19C177.9,203,171,223.2,171,250s6.9,47,20.4,60.1
		c13.1,12.6,32.8,19,58.7,19s45.6-6.4,58.7-19c13.5-13.1,20.4-33.3,20.4-60.1s-6.8-47-20.4-60C295.6,177.4,275.9,171,250,171
		L250,171z"/>
	<path class="st0" d="M269.7,499.9h-39.4c-10,0-18.1-8.1-18.1-18.1v-51.4c0-2.3-2.5-4-4.9-4.3c-20.7-3.2-39.3-9-55.5-17.1l-0.1-0.1
		c-1.8-1-4.4-1.3-6,0.2l-0.1,0.1l-37.5,37.6c-7.3,7.2-18.9,7.2-26.1,0L53.3,418c-7.2-7.3-7.2-18.9,0-26.1l37.5-37.5l0.1-0.1
		c1.7-1.8,1.1-4.6,0.4-5.5c-5.8-9.4-13.4-30.3-17.4-56c-0.4-2.3-2.2-4.8-4.3-4.9H18.2c-10-0.1-18.1-8.2-18.1-18.1v-39.4
		c0-10,8.1-18.1,18.1-18.1h51.5c2.1-0.1,3.9-2.6,4.3-4.9c2.8-18.5,9.4-43,17.4-56c0.6-1,1.3-3.7-0.4-5.5l-0.1-0.1l-37.5-37.5
		c-7.2-7.3-7.2-18.9,0-26.1l28.8-28.8c7.3-7.2,18.9-7.2,26.1,0l37.5,37.5l0.1,0.1c1.6,1.5,4.1,1.1,6,0.2l0.1-0.1
		c16.1-8.1,34.8-13.9,55.5-17.1c2.4-0.4,4.9-2.1,4.9-4.3V18.2c0-10,8.1-18.1,18.1-18.1h39.4c10,0,18.1,8.1,18.1,18.1v51.4
		c0,0.1,0,0.1,0,0.1c0.1,2.2,2.5,3.8,4.9,4.3h0.1c20.8,3.2,38.3,8.6,55.3,17.1c1.2,0.6,4.1,1.7,6.1-0.1l0.1-0.1l37.5-37.5
		c7.3-7.2,18.9-7.2,26.1,0l28.8,28.8c7.2,7.3,7.2,18.9,0,26.1l-37.5,37.5l-0.1,0.1c-1.4,1.6-1.1,4.1-0.2,6l0.1,0.1
		c8.2,16.1,13.9,34.8,17.1,55.5c0.4,2.4,2.1,4.9,4.3,4.9h51.4c10,0,18.1,8.1,18.1,18.1v39.4c0,10-8.1,18.1-18.1,18.1h-51.4
		c-2.3,0-4,2.5-4.3,4.9c-3.2,20.7-9,39.3-17.1,55.5l-0.1,0.1c-1,1.8-1.3,4.4,0.2,6l0.1,0.1l37.5,37.5c7.2,7.3,7.2,18.9,0,26.1
		L418,446.9c-7.3,7.2-18.9,7.2-26.1,0l-37.5-37.5l-0.1-0.1c-2-1.8-4.9-0.7-6.1-0.1c-17,8.4-34.6,13.9-55.3,17.1h-0.1
		c-2.3,0.4-4.8,2.1-4.9,4.3c0,0.1,0,0.1,0,0.1v51.4C287.8,491.9,279.7,499.9,269.7,499.9z M158.3,396.3c14.8,7.5,32,12.7,51.2,15.7
		c9.8,1.5,17,9.2,17,18.4v51.4c0,2.1,1.8,3.8,3.9,3.9h39.4c2.1,0,3.8-1.8,3.9-3.9v-51.2c0-0.1,0-0.1,0-0.2c0-9.1,7.1-16.9,16.9-18.4
		h0.1c19.3-3,35.6-8,51.3-15.7c6.3-3.1,15.6-4.1,22.5,2.9l0.1,0.1l37.4,37.3c1.6,1.6,4.3,1.6,6,0l28.8-28.8c1.6-1.7,1.6-4.3,0-6
		l-37.4-37.4l-0.1-0.1c-5.8-5.8-6.9-14.9-2.8-22.6c7.5-14.8,12.7-32,15.7-51.2c1.5-9.8,9.2-17,18.4-17H482c2.1,0,3.8-1.8,3.9-3.9
		v-39.4c0-2.1-1.8-3.8-3.9-3.9h-51.4c-9.2,0-16.9-7.1-18.4-17c-3-19.2-8.2-36.4-15.7-51.2c-4.1-7.8-2.9-16.9,2.8-22.6l0.1-0.1
		L436.9,98c1.6-1.7,1.6-4.3,0-6l-28.8-28.8c-1.6-1.6-4.3-1.6-6,0l-37.4,37.4l-0.1,0.1c-6.9,7-16.2,6-22.5,2.9
		c-15.6-7.8-32-12.7-51.3-15.7h-0.1c-9.8-1.6-16.9-9.2-16.9-18.4c0-0.1,0-0.1,0-0.2V18.1c0-2.1-1.8-3.8-3.9-3.9h-39.4
		c-2.1,0-3.8,1.8-3.9,3.9v51.4c0,9.2-7.1,16.9-17,18.4c-19.2,3-36.4,8.2-51.2,15.7c-7.8,4.1-16.9,2.9-22.6-2.8l-0.1-0.1L98.2,63.2
		c-1.6-1.6-4.3-1.6-6,0L63.4,92c-1.6,1.7-1.6,4.3,0,6l37.4,37.4l0.1,0.1c6.8,6.8,6.5,16.8,2.6,23.1c-6,9.7-12.3,30.5-15.4,50.7
		c-1.3,8.2-8.2,16.9-18.4,16.9H18.2c-2.1,0-3.8,1.8-3.9,3.9v39.4c0,2.1,1.8,3.8,3.9,3.9h51.4c7.7,0,16.7,6,18.4,16.9
		c3.1,20.2,9.5,41.1,15.4,50.7c3.9,6.3,4.3,16.3-2.6,23.1l-0.1,0.1l-37.4,37.4c-1.6,1.7-1.6,4.3,0,6l28.8,28.8c1.6,1.6,4.3,1.6,6,0
		l37.4-37.4l0.1-0.1C141.4,393.4,150.5,392.3,158.3,396.3z"/>
</g>
</svg>
