<?xml version="1.0" encoding="UTF-8"?>
<!-- Generator: Adobe Illustrator 24.3.0, SVG Export Plug-In . SVG Version: 6.00 Build 0)  -->
<svg xmlns="http://www.w3.org/2000/svg" xmlns:xlink="http://www.w3.org/1999/xlink" version="1.1" id="Capa_1" x="0px" y="0px" viewBox="0 0 500 500" style="enable-background:new 0 0 500 500;" xml:space="preserve">
<style type="text/css">
	.st0{fill-rule:evenodd;clip-rule:evenodd;fill:#006AFF;}
</style>
<desc>Created with sketchtool.</desc>
<g id="Page-1">
	<g id="Sábana-de-iconos-Copy" transform="translate(-959.000000, -1294.000000)">
		<path id="ic_file_regular" class="st0" d="M996.2,1368.1c-2.7,0-4.8,2.1-4.8,4.8v342.3c0,2.7,2.1,4.8,4.8,4.8h425.7    c2.6,0,4.8-2.1,4.8-4.8v-286.6c0-2.7-2.1-4.8-4.8-4.8h-223.3c-9,0-16.2-7.3-16.2-16.2v-34.8c0-2.7-2.1-4.8-4.8-4.8H996.2z     M1421.9,1752.3H996.2c-20.5,0-37.2-16.6-37.2-37.2v-342.3c0-20.5,16.6-37.1,37.2-37.1h181.3c20.5,0,37.2,16.6,37.2,37.1v18.6    h207.1c20.5,0,37.1,16.6,37.1,37.1v286.6C1459,1735.7,1442.4,1752.3,1421.9,1752.3z" style="fill: #58617a;"/>
	</g>
</g>
</svg>
