<?xml version="1.0" encoding="utf-8"?>
<!-- Generator: Adobe Illustrator 24.3.0, SVG Export Plug-In . SVG Version: 6.00 Build 0)  -->
<svg version="1.1" id="Capa_1" xmlns="http://www.w3.org/2000/svg" xmlns:xlink="http://www.w3.org/1999/xlink" x="0px" y="0px"
	 viewBox="0 0 500 500" style="enable-background:new 0 0 500 500;" xml:space="preserve">
<style type="text/css">
	.st0{fill-rule:evenodd;clip-rule:evenodd;fill:#006AFF;}
</style>
<path class="st0" d="M262.9,468.8c61.9-0.6,205.8-22.9,205.8-218C468.8,55.4,323.5,32.2,261,31.3c-7.3-0.1-14.6-0.1-21.8,0.1
	C176.6,32.5,31.2,56.1,31.2,249.3c0,193.3,146.2,217.7,209.1,219.2c5.5,0.1,12,0.2,18.1,0.2C258.5,468.8,262.9,468.8,262.9,468.8z
	 M261.5,0C311.7,0.7,500,18.9,500,250.8c0,231.6-186.6,248.8-236.8,249.2h-4.8c-6.4,0-13.1-0.1-18.9-0.3
	C190.6,498.6,0,479.2,0,249.3C0,18.9,190.8,1,238.5,0.1C246.2,0,253.8,0,261.5,0L261.5,0z M250.1,187.8c8.6,0,15.7,7,15.7,15.7V366
	c0,8.6-7,15.7-15.7,15.7c-8.6,0-15.7-7-15.7-15.7V203.5C234.5,194.9,241.5,187.8,250.1,187.8z M250.3,133.9
	c9.2-0.4,16.9,6.8,17.2,16.1c0.4,9.2-6.8,16.9-16.1,17.2c-0.4,0-0.8,0-1.2,0c-9.2-0.4-16.4-8-16.1-17.2
	C234.6,141.2,241.5,134.2,250.3,133.9z"/>
</svg>
