<?xml version="1.0" encoding="utf-8"?>
<!-- Generator: Adobe Illustrator 24.3.0, SVG Export Plug-In . SVG Version: 6.00 Build 0)  -->
<svg version="1.1" id="Capa_1" xmlns="http://www.w3.org/2000/svg" xmlns:xlink="http://www.w3.org/1999/xlink" x="0px" y="0px"
	 viewBox="0 0 500 500" style="enable-background:new 0 0 500 500;" xml:space="preserve">
<style type="text/css">
	.st0{fill-rule:evenodd;clip-rule:evenodd;fill:#006AFF;}
</style>
<path class="st0" d="M468.4,405.9c7.1-25.4,10.7-54.4,10.7-86.4C479.2,169.2,402,93.1,250,93.1S20.9,169.2,20.9,319.6
	c0,31.9,3.6,61,10.7,86.4H468.4z M249.9,72.4c163.6,0,250.1,85.4,250.1,247.2c0,36.6-4.6,69.9-13.4,98.6c-0.1,0.5-0.4,1.1-0.6,1.5
	l-0.6,1.1c-1.8,3.6-5.4,5.8-9.4,5.8H23.8c-4.6,0-8.5-2.9-10-7.3C4.6,390.3,0,356.7,0,319.6C0,157.9,86.4,72.4,249.9,72.4z
	 M250,368.5c10.6,0,19.1-7.5,21.2-17.4l-17.3,5c-5.5,1.6-11.2-1.5-12.9-7c-1.6-5.5,1.6-11.2,7-12.8c0,0,0,0,0.1,0l17.6-5.1
	c-4.1-4.1-9.7-6.5-15.7-6.4c-12.2,0-22.1,9.8-22.1,21.8C227.9,358.6,237.8,368.5,250,368.5z M250,304.1c15.1,0,29.1,8,36.9,21
	l153-44.4c5.5-1.6,11.2,1.4,12.9,6.9v0.1c1.6,5.4-1.5,11.2-7,12.7c-0.1,0-0.1,0-0.1,0l-152.9,44.3c0,0.6,0.2,1.1,0.2,1.8
	c0,23.4-19.3,42.5-43,42.5S207,370,207,346.6S226.3,304.1,250,304.1z M249.6,157.9c-5.8,0-10.4-4.6-10.5-10.3l0,0v-20.9
	c0-5.7,4.7-10.3,10.4-10.3c5.8,0,10.5,4.6,10.5,10.3v20.9C260,153.4,255.3,158,249.6,157.9z M117.6,171.2l15,14.8
	c4.1,4,4.1,10.5,0.1,14.4c-0.1,0.1-0.1,0.1-0.1,0.1c-4.1,4-10.7,4-14.7,0l-15-14.8c-4.1-4-4.1-10.5-0.1-14.4
	c0.1-0.1,0.1-0.1,0.1-0.1C106.9,167.3,113.5,167.3,117.6,171.2z M72.5,292.3c5.8,0,10.4,4.6,10.4,10.3S78.2,313,72.5,313H51.3
	c-5.7,0-10.4-4.6-10.4-10.3s4.7-10.3,10.4-10.3H72.5L72.5,292.3z M375.9,204.6c-2.8,0-5.4-1.1-7.4-3c-4.1-4-4.1-10.5-0.1-14.5
	l0.1-0.1l15-14.8c4.1-4.1,10.7-4.1,14.7,0c4.1,3.9,4.1,10.4,0.1,14.4c-0.1,0.1-0.1,0.1-0.1,0.1l-14.9,14.8
	C381.3,203.5,378.6,204.6,375.9,204.6z"/>
</svg>
