<?xml version="1.0" encoding="UTF-8"?>
<svg xmlns="http://www.w3.org/2000/svg" viewBox="0 0 500 500"><g fill="#006aff"><path d="M406.7 196.6c-8.7-8.1-19.5-13.9-32.3-17.4v-64.7C374.4 51.4 319.7 0 252.4 0h-4.8c-67.3 0-122 51.3-122 114.5V179c-13.1 3.4-24 9.3-32.8 17.6-15.6 14.7-23.6 36.3-23.6 64v.1s0 3.1.1 10.9l-.1 143c0 27.8 8 49.3 23.6 64C107.7 492.8 129 500 156 500h187.3c27 0 48.3-7.1 63.4-21.2 15.6-14.7 23.7-36.1 24.1-63.9V260.6v-.2c-.3-27.6-8.5-49.2-24.1-63.8zM155 114.5c0-47 41.5-85.2 92.6-85.2h4.8c51 0 92.6 38.3 92.6 85.2v60.9H155v-60.9zm246.5 300.1c-.3 19.4-5.3 33.8-14.8 42.7-9.4 8.8-23.9 13.3-43.2 13.3H156.1c-19.4 0-33.9-4.5-43.2-13.2-9.5-8.9-14.3-23.3-14.3-42.7l.1-143.1v-.1c0-7.2-.1-10.4-.1-11 0-19.3 4.8-33.6 14.3-42.5 9.3-8.7 23.9-13.2 43.2-13.2h187.4c19.3 0 33.9 4.4 43.2 13.2 9.6 8.9 14.6 23.4 14.8 42.7v153.9z" style="fill: #58617a;"/><path d="M250.1 317c-13.2 0-23.9 3.8-31.5 11.2-8 7.7-12.1 18.7-12.1 32.4s4.1 24.7 12.1 32.4c7.7 7.5 18.3 11.2 31.5 11.2s23.9-3.8 31.4-11.2c8.1-7.7 12.1-18.7 12.1-32.4s-4.1-24.7-12.1-32.4c-7.6-7.4-18.2-11.2-31.4-11.2zm0 57.9c-10.9 0-14.2-3.3-14.2-14.2 0-10.9 3.3-14.3 14.2-14.3 10.9 0 14.3 3.3 14.3 14.3 0 10.9-3.3 14.2-14.3 14.2z" style="fill: #58617a;"/></g></svg>
