<?xml version="1.0" encoding="iso-8859-1"?>
<!-- Generator: Adobe Illustrator 16.0.0, SVG Export Plug-In . SVG Version: 6.00 Build 0)  -->
<!DOCTYPE svg PUBLIC "-//W3C//DTD SVG 1.1//EN" "http://www.w3.org/Graphics/SVG/1.1/DTD/svg11.dtd">
<svg version="1.1" class="header-logo" id="telefonica-logo" x="0px" y="0px" viewBox="0 0 224.1 37" style="enable-background:new 0 0 224.1 37;" xml:space="preserve" xmlns="http://www.w3.org/2000/svg" xmlns:xlink="http://www.w3.org/1999/xlink">
    <g id="business-solutions" fill="white">
        <rect id="line" x="139.3" y="1.5" class="logo-obj" width="0.9" height="26.4"></rect>
        <path class="logo-obj" d="M164.5,5.3c0-0.5-0.2-0.9-0.5-1.2c-0.4-0.4-1.2-0.6-2.2-0.6h-2.6l-1.4,8.3h2.7c1.5,0,2.6-0.3,3.2-0.8
    c0.5-0.5,0.7-1.1,0.7-1.9c0-0.9-0.5-1.5-1.5-1.8C164,6.9,164.5,6.1,164.5,5.3z M162.2,10c-0.3,0.3-0.8,0.4-1.5,0.4h-0.8l0.4-2.3h1
    c0.5,0,0.8,0,1,0.2c0.2,0.1,0.2,0.4,0.2,0.7C162.5,9.5,162.4,9.8,162.2,10z M162.3,6.4c-0.3,0.2-0.7,0.4-1.2,0.4h-0.6l0.3-1.9h0.7
    c0.4,0,0.7,0.1,0.9,0.2c0.1,0.1,0.2,0.3,0.2,0.5C162.6,5.9,162.5,6.2,162.3,6.4z"></path>
        <path class="logo-obj" d="M169,11.9c0.9,0,1.8-0.2,2.4-0.8c0.5-0.4,0.9-1.1,1.1-2.1l1-5.5h-1.7l-0.9,5c-0.1,0.8-0.3,1.2-0.6,1.5
    c-0.2,0.3-0.6,0.5-1.3,0.5c-0.5,0-0.9-0.1-1.1-0.4c-0.2-0.3-0.3-0.6-0.3-0.9c0-0.1,0-0.4,0.1-0.8l0.9-4.9h-1.8L166,7.9
    c-0.1,0.6-0.1,0.9-0.1,1.3c0,0.9,0.2,1.5,0.8,2C167.2,11.7,168,11.9,169,11.9z"></path>
        <path class="logo-obj" d="M178.3,7l-0.7-0.3c-0.9-0.4-1.2-0.6-1.2-1.1c0-0.6,0.7-0.9,1.6-0.9c0.6,0,1.2,0.1,1.9,0.3l0.5-1.3
    c-0.8-0.3-1.6-0.4-2.4-0.4c-0.9,0-1.7,0.2-2.3,0.6c-0.7,0.5-1,1.1-1,1.9c0,1.1,0.6,1.7,1.8,2.2l0.7,0.3c0.8,0.3,1.1,0.6,1.1,1.1
    c0,0.8-0.9,1-1.7,1c-0.8,0-1.7-0.2-2.4-0.4l-0.4,1.4c0.9,0.3,1.9,0.5,2.8,0.5c1.1,0,2-0.2,2.6-0.7c0.7-0.5,1-1.2,1-2
    C180,8.2,179.5,7.5,178.3,7z"></path>
        <polygon class="logo-obj" points="184.4,3.5 182.5,3.5 181.1,11.8 183,11.8"></polygon>
        <polygon class="logo-obj" points="187.5,6.6 190.4,11.8 191.9,11.8 193.3,3.5 191.7,3.5 190.7,8.9 187.7,3.5 186.4,3.5 184.9,11.8
    186.6,11.8"></polygon>
        <polygon class="logo-obj" points="196.2,8.3 199,8.3 199.3,6.9 196.5,6.9 196.8,4.9 200.4,4.9 200.7,3.5 195.2,3.5 193.7,11.8
    199.4,11.8 199.6,10.4 195.8,10.4"></polygon>
        <path class="logo-obj" d="M203.4,10.5c-0.8,0-1.7-0.2-2.4-0.4l-0.4,1.4c0.9,0.3,1.9,0.5,2.8,0.5c1.1,0,2-0.2,2.6-0.7c0.7-0.5,1-1.2,1-2
    c0-1.1-0.5-1.8-1.7-2.2l-0.7-0.3c-0.9-0.4-1.2-0.6-1.2-1.1c0-0.6,0.7-0.9,1.6-0.9c0.6,0,1.2,0.1,1.9,0.3l0.5-1.3
    c-0.8-0.3-1.6-0.4-2.4-0.4c-0.9,0-1.7,0.2-2.3,0.6c-0.7,0.5-1,1.1-1,1.9c0,1.1,0.6,1.7,1.8,2.2l0.7,0.3c0.8,0.3,1.1,0.6,1.1,1.1
    C205.1,10.3,204.2,10.5,203.4,10.5z"></path>
        <path class="logo-obj" d="M213,11.3c0.7-0.5,1-1.2,1-2c0-1.1-0.5-1.8-1.7-2.2l-0.7-0.3c-0.9-0.4-1.2-0.6-1.2-1.1c0-0.6,0.7-0.9,1.6-0.9
    c0.6,0,1.2,0.1,1.9,0.3l0.5-1.3c-0.8-0.3-1.6-0.4-2.4-0.4c-0.9,0-1.7,0.2-2.3,0.6c-0.7,0.5-1,1.1-1,1.9c0,1.1,0.6,1.7,1.8,2.2
    l0.7,0.3c0.8,0.3,1.1,0.6,1.1,1.1c0,0.8-0.9,1-1.7,1c-0.8,0-1.7-0.2-2.4-0.4l-0.4,1.4c0.9,0.3,1.9,0.5,2.8,0.5
    C211.4,11.9,212.3,11.7,213,11.3z"></path>
        <path class="logo-obj" d="M161.9,16.7c0.6,0,1.2,0.1,1.9,0.3l0.5-1.3c-0.8-0.3-1.6-0.4-2.4-0.4c-0.9,0-1.7,0.2-2.3,0.6
    c-0.7,0.5-1,1.1-1,1.9c0,1.1,0.6,1.7,1.8,2.2l0.7,0.3c0.8,0.3,1.1,0.6,1.1,1.1c0,0.8-0.9,1-1.7,1c-0.8,0-1.7-0.2-2.4-0.4l-0.4,1.4
    c0.9,0.3,1.9,0.5,2.8,0.5c1.1,0,2-0.2,2.6-0.7c0.7-0.5,1-1.2,1-2c0-1.1-0.5-1.8-1.7-2.2l-0.7-0.3c-0.9-0.4-1.2-0.6-1.2-1.1
    C160.3,17,161,16.7,161.9,16.7z"></path>
        <path class="logo-obj" d="M169.5,15.3c-1.7,0-2.9,0.7-3.6,2c-0.5,0.9-0.9,2.2-0.9,3.4c0,2.3,1.3,3.3,3.2,3.3c1.7,0,2.9-0.7,3.6-2
    c0.6-1,0.9-2.3,0.9-3.4C172.7,16.2,171.4,15.3,169.5,15.3z M170.2,21.2c-0.4,0.7-0.9,1.2-1.8,1.2c-0.8,0-1.4-0.5-1.4-1.8
    c0-0.9,0.2-1.9,0.6-2.6c0.4-0.8,0.9-1.2,1.8-1.2c0.8,0,1.4,0.4,1.4,1.8C170.8,19.4,170.6,20.4,170.2,21.2z"></path>
        <polygon class="logo-obj" points="176.7,15.4 174.8,15.4 173.4,23.7 178.9,23.7 179.1,22.3 175.5,22.3"></polygon>
        <path class="logo-obj" d="M185.3,20.4c-0.1,0.8-0.3,1.2-0.6,1.5c-0.2,0.3-0.7,0.5-1.3,0.5c-0.5,0-0.9-0.1-1.1-0.4
    c-0.2-0.3-0.3-0.6-0.3-0.9c0-0.1,0-0.4,0.1-0.8l0.9-4.9h-1.8l-0.8,4.4c-0.1,0.5-0.1,0.9-0.1,1.3c0,0.9,0.2,1.5,0.8,2
    c0.6,0.5,1.3,0.7,2.3,0.7c0.9,0,1.8-0.2,2.5-0.8c0.5-0.4,0.9-1.1,1.1-2.1l1-5.5h-1.7L185.3,20.4z"></path>
        <polygon class="logo-obj" points="189,15.4 188.8,16.8 191.3,16.8 190.1,23.7 192,23.7 193.2,16.8 195.7,16.8 196.1,15.4"></polygon>
        <polygon class="logo-obj" points="195.8,23.7 197.7,23.7 199.1,15.4 197.3,15.4"></polygon>
        <path class="logo-obj" d="M204.3,15.3c-1.7,0-2.9,0.7-3.6,2c-0.5,0.9-0.9,2.2-0.9,3.4c0,2.3,1.3,3.3,3.2,3.3c1.7,0,2.9-0.7,3.6-2
    c0.6-1,0.9-2.3,0.9-3.4C207.5,16.2,206.2,15.3,204.3,15.3z M204.9,21.2c-0.4,0.7-0.9,1.2-1.8,1.2c-0.8,0-1.4-0.5-1.4-1.8
    c0-0.9,0.2-1.9,0.6-2.6c0.4-0.8,0.9-1.2,1.8-1.2c0.8,0,1.4,0.4,1.4,1.8C205.6,19.4,205.3,20.4,204.9,21.2z"></path>
        <polygon class="logo-obj" points="213.9,20.8 210.9,15.4 209.6,15.4 208.1,23.7 209.8,23.7 210.7,18.5 213.6,23.7 215.1,23.7
    216.5,15.4 214.9,15.4"></polygon>
        <path class="logo-obj" d="M221.4,19l-0.7-0.3c-0.9-0.4-1.2-0.6-1.2-1.1c0-0.6,0.7-0.9,1.6-0.9c0.6,0,1.2,0.1,1.9,0.3l0.5-1.3
    c-0.8-0.3-1.6-0.4-2.4-0.4c-0.9,0-1.7,0.2-2.3,0.6c-0.7,0.5-1,1.1-1,1.9c0,1.1,0.6,1.7,1.8,2.2l0.7,0.3c0.8,0.3,1.1,0.6,1.1,1.1
    c0,0.8-0.9,1-1.7,1c-0.8,0-1.7-0.2-2.4-0.4l-0.4,1.4c0.9,0.3,1.9,0.5,2.8,0.5c1.1,0,2-0.2,2.6-0.7c0.7-0.5,1-1.2,1-2
    C223.1,20.1,222.6,19.4,221.4,19z"></path>
    </g>
    <g id="telefonica-text" fill="white">
        <path class="logo-obj" d="M38.4,16.6c-1.9,2.8-4.6,5.3-6.9,5.3c-1,0-1.4-0.5-1.4-1.6c0-0.7,0.2-1.6,0.3-2.1c2.2-1.1,4.4-2.3,6.4-4.4
    c1.1-1.2,1.8-2.4,1.9-3.6c0-1.2-0.7-1.7-2.1-1.8c-2.1,0-4.6,1.4-6.2,3.1c-2.1,2.3-3.8,5.6-3.8,8.5c0,2.1,1,3.7,3.6,3.6
    c2.8-0.1,5.7-2.3,7.1-3.9c-0.2,0.7-0.3,1.3-0.3,1.9c0,1.8,0.9,3.1,2.7,3.7l0.4-0.2c-0.2-0.5-0.2-1-0.2-1.6c0.1-1.8,0.8-3.8,1.9-6.5
    c2-5,4.9-10.8,6.2-14.1l-3,0.6C44.3,3.7,44,4,43.9,4.4c-1.5,3.1-3,6.4-4.9,10.8C38.8,15.6,38.6,16.1,38.4,16.6z M35.5,9.9
    c0.5,0,0.6,0.3,0.6,0.7c0,2-2.4,4.5-5.5,6.3C31.5,13.9,33.6,9.8,35.5,9.9z"></path>
        <path class="logo-obj" d="M87.5,21.5c0,1.4,0.9,2.2,2.6,2.2c1.7,0,3.5-1.1,5-2.5c0.3,1.5,1.4,2.6,3.6,2.5c2.3-0.1,4.5-1.5,6-3.2V21
    c0,1.5,0.8,2.7,2.5,2.7c1.9,0,4.1-1.4,5.8-3.9l0.1,0c-0.2,0.6-0.3,1.6-0.4,2.2c0,1.8,1.1,2.9,2.6,3.2l0.4-0.1
    c-0.6-1.3,0.2-4.7,0.5-5.8c1.1-3.7,2.9-7.8,4-10c-0.5-0.4-1.6-0.7-2.8-0.7c-3.9-0.1-7.9,1.5-10.8,6.6c-0.5,0.9-1,1.9-1.4,3
    c-0.4,0.5-0.8,1-1,1.2c-1,1-2.5,2.3-4,2.3c-0.9,0-1.3-0.6-1.3-1.7c0-4.1,3.6-10.3,6.1-10.3c0.7,0,1,0.3,1,0.9
    c0,0.7-0.5,1.6-1.1,2.2l0.3,0.3c1.6-0.6,3.2-1.8,3.2-3c0-1.4-1.6-1.6-3-1.6c-1.9,0-4.3,1-6.2,3c-2.4,2.6-3.6,5.7-3.9,8
    c-1.1,1.3-2.3,2.1-3.1,2.1c-0.5,0-0.8-0.2-0.8-0.7c0-0.4,0.2-1.3,0.7-2.4c1.1-2.6,2.6-5.9,4.5-9.8c0,0-2.9,0.5-3.3,0.6
    c-0.4,0.1-0.8,0.4-1,0.8c-1.2,2.6-2.7,5.6-3.6,7.8C87.8,19.4,87.5,20.7,87.5,21.5z M114.2,10.4c0.9-0.4,1.7-0.5,2.3-0.3
    c-0.2,0.5-1.3,2.7-2.2,4.7c-1.4,3.1-3.4,6.3-5.3,6.7c-0.6,0.2-1-0.1-1-0.7C108.1,18,111.2,11.8,114.2,10.4z"></path>
        <path class="logo-obj" d="M43.4,20c0,2,1,3.7,3.8,3.6c2.9-0.1,5.6-1.8,7.9-4.2c-0.6,1.6-1.1,2.9-1.4,3.6c-0.9,2.1-1.5,3.9-2.8,4.9
    l0.1,0.3c3.9,0.2,5.3-2.5,6.9-6.9c1.6-4.4,2.9-8.3,4-10.9c1.7,0,4.1,0.1,5.4-0.2c-3.5,1.6-6.5,7.1-6.1,10.8
    c0.2,1.6,1.1,2.7,3.2,2.7c4,0,7.4-4.7,8.7-7.9c0.7-1.8,1.2-3.3,1.3-4.9c1-0.2,1.9-0.3,2.3-0.4c0.9-0.1,0.7,0.9,0.4,1.6
    c-1.6,4.6-4.5,11.2-4.5,11.3h3.1c1.4-2.8,2.2-4.6,3.3-6.6c1.3-2.3,4.2-6,5.4-6c0.4,0,0.5,0.3,0.4,0.7c-0.2,1.5-4,7.4-3.9,10.3
    c0,1.9,1,3,2.8,3.5l0.4-0.2c-0.2-0.4-0.3-0.9-0.3-1.5c0-1.9,1.5-5.3,2.1-6.6c1-2.1,2.7-5.1,2.6-6.7c-0.1-0.8-0.7-1.5-2.1-1.5
    c-2.6,0-5.1,2.5-7.2,5.8l-0.1,0c0.9-1.9,1.5-3.7,1.5-4.6c0-0.8-0.5-1.1-1.4-1.1c-0.7,0-1.6,0.3-2.5,0.5c-1.3,0.3-2.6,0.7-4.1,1
    c-0.9,0.1-1.2,0.3-1.2,0.6c0.2,5.1-3.3,11.1-5.6,11.1c-1,0-1.2-0.7-1.2-1.7c0-3.5,2.9-9.4,5.7-10.4c0.2-0.1,0.5-0.1,0.6-0.2
    l0.4-0.9c-0.6,0.1-2,0.1-2.8,0.2h-6.2c1.6-3.9,3.9-6.4,7.3-6.6C72,2.2,73.4,3,73.5,4.2c0.1,1-0.2,1.8-1,2.7l0.2,0.2
    c1.8-0.9,3.1-2.3,3.1-3.4c0-1.6-1.9-2.5-4.9-2.5c-3.8,0-8.5,0.9-11.8,7.7c-1,0.1-1.9,0.5-2.6,1.3l0.1,0.3c0.5-0.2,1.2-0.2,1.9-0.2
    c-0.5,1.1-1.4,3.5-2.3,6c-2.8,3.7-5.6,5.4-7.6,5.4c-1.1,0-1.6-0.6-1.6-1.6c0-0.7,0.2-1.6,0.3-2.1c2.2-1.1,4.4-2.3,6.4-4.4
    c1.1-1.2,1.8-2.4,1.9-3.6c0-1.2-0.7-1.7-2.1-1.8c-2.1,0-4.6,1.4-6.2,3.1C45.1,13.8,43.5,17.1,43.4,20z M52.5,9.9
    c0.5,0,0.7,0.3,0.7,0.7c0,2-2.4,4.5-5.5,6.3C48.4,13.9,50.6,9.8,52.5,9.9z"></path>
        <path class="logo-obj" d="M96.2,6.4c0.9,0,1.7-0.8,1.9-1.8c0.2-1-0.4-1.8-1.2-1.7c-0.9,0-1.7,0.8-1.9,1.8C94.8,5.6,95.4,6.4,96.2,6.4z"></path>
        <path id="underline" class="logo-obj" d="M0.8,35.2c0,0.5,32.3,0.9,64,0.9c31.8,0,64-0.4,64-0.9c0-0.5-32.3-0.9-64-0.9
    C33.1,34.3,0.8,34.7,0.8,35.2z"></path>
        <path class="logo-obj" d="M13.6,11.7l0.2-0.2c-0.3-0.5-0.4-1.3-0.4-1.8c0.1-4.1,4.5-6.5,11.3-6.5h3.8c-2.2,1.3-4,3-5.4,6.2
    c-0.6,1.4-3.5,8.8-4.7,12.1c-1.5,4-2.4,5.7-3.6,6.4l0.2,0.4c3.3,0.2,5.2-1.5,6.5-4.6c1.2-2.9,2.8-7.6,3.6-9.6
    c2.5-6.7,3.6-9.4,5.6-10.8c2.8,0,5.5,0,5.5,0c3-0.1,4.3-0.8,5.2-2L41.1,1c-0.8,0.4-2.4,0.5-3.8,0.5H23.8c-7.6,0-12.3,2.5-13.1,6.2
    C10.4,9.5,11.4,11.4,13.6,11.7z"></path>
    </g>
</svg>