<?xml version="1.0" encoding="utf-8"?>
<!-- Generator: Adobe Illustrator 24.3.0, SVG Export Plug-In . SVG Version: 6.00 Build 0)  -->
<svg version="1.1" id="Artwork" xmlns="http://www.w3.org/2000/svg" xmlns:xlink="http://www.w3.org/1999/xlink" x="0px" y="0px"
	 viewBox="0 0 500 500" style="enable-background:new 0 0 500 500;" xml:space="preserve">
<style type="text/css">
	.st0{fill:#006AFF;}
	.st1{fill:#003245;}
</style>
<g>
	<path class="st0" d="M250.4,499.1C87.2,499.1,0.9,412.8,0.9,249.6S87.2,0,250.4,0C330.1,0,391.8,20.6,434,61.3
		c43.8,42.2,66,105.6,66,188.3C500.1,412.8,413.7,499.1,250.4,499.1z M250.4,14.2C94.3,14.2,15.1,93.4,15.1,249.6
		c0,156.1,79.1,235.3,235.3,235.3c156.2,0,235.4-79.1,235.4-235.3C485.9,93.4,406.6,14.2,250.4,14.2z"/>
</g>
<g>
	<path class="st0" d="M250.5,402.8c-48.7,0-86.7-12.7-112.6-37.7c-26.9-26-40.6-64.9-40.6-115.5c0-42.2,9.5-76.4,28.3-101.6
		c18.4-24.7,45.5-40.7,80.6-47.7c3.8-0.8,7.6,1.7,8.4,5.6c0.8,3.8-1.7,7.6-5.6,8.4c-64.7,12.9-97.5,58.4-97.5,135.3
		c0,92.3,46.7,139,139,139s139.1-46.7,139.1-139c0-77.9-33.7-123.7-100.2-135.8c-3.8-0.7-6.4-4.4-5.7-8.2c0.7-3.8,4.4-6.4,8.2-5.7
		c36,6.6,63.9,22.5,82.8,47.2c19.3,25.3,29.1,59.8,29.1,102.7c0,50.7-13.7,89.5-40.6,115.5C337.2,390.1,299.2,402.8,250.5,402.8z"/>
</g>
<g>
	<path class="st1" d="M250.5,179.7c-3.9,0-7.1-3.2-7.1-7.1V68.7c0-3.9,3.2-7.1,7.1-7.1s7.1,3.2,7.1,7.1v103.9
		C257.6,176.5,254.4,179.7,250.5,179.7z"/>
</g>
<g>
	<path class="st0" d="M250.5,402.8c-48.7,0-86.7-12.7-112.6-37.7c-26.9-26-40.6-64.9-40.6-115.5c0-42.2,9.5-76.4,28.3-101.6
		c18.4-24.7,45.5-40.7,80.6-47.7c3.8-0.8,7.6,1.7,8.4,5.6c0.8,3.8-1.7,7.6-5.6,8.4c-64.7,12.9-97.5,58.4-97.5,135.3
		c0,92.3,46.7,139,139,139s139.1-46.7,139.1-139c0-77.9-33.7-123.7-100.2-135.8c-3.8-0.7-6.4-4.4-5.7-8.2c0.7-3.8,4.4-6.4,8.2-5.7
		c36,6.6,63.9,22.5,82.8,47.2c19.3,25.3,29.1,59.8,29.1,102.7c0,50.7-13.7,89.5-40.6,115.5C337.2,390.1,299.2,402.8,250.5,402.8z"/>
</g>
<g>
	<path class="st0" d="M250.5,179.7c-3.9,0-7.1-3.2-7.1-7.1V68.7c0-3.9,3.2-7.1,7.1-7.1s7.1,3.2,7.1,7.1v103.9
		C257.6,176.5,254.4,179.7,250.5,179.7z"/>
</g>
</svg>
