<?xml version="1.0" encoding="utf-8"?>
<!-- Generator: Adobe Illustrator 24.3.0, SVG Export Plug-In . SVG Version: 6.00 Build 0)  -->
<svg version="1.1" id="Capa_1" xmlns="http://www.w3.org/2000/svg" xmlns:xlink="http://www.w3.org/1999/xlink" x="0px" y="0px"
	 viewBox="0 0 500 500" style="enable-background:new 0 0 500 500;" xml:space="preserve">
<style type="text/css">
	.st0{fill-rule:evenodd;clip-rule:evenodd;fill:#006AFF;}
</style>
<path class="st0" d="M416.7,464V36.1c0-8.3-6.7-15.2-10.1-15.2H93.4c-3.4,0-10.1,6.9-10.1,15.2v427.9c0,8.7,6.1,15.2,10.1,15.2
	l313.2,0.1C410.6,479.2,416.7,472.7,416.7,464z M406.5,0c16.2,0,31.1,17.2,31.1,36.1V464c0,19.2-14.5,36-31.1,36l-312.8-0.1
	c-16.6,0-31.1-16.8-31.1-36V36.1C62.5,17.2,77.3,0,93.6,0H406.5L406.5,0z M141.8,166.7c-11.5,0-20.8-9.3-20.8-20.8
	c0-11.5,9.3-20.8,20.8-20.8c11.5,0,20.8,9.3,20.8,20.8C162.6,157.4,153.3,166.7,141.8,166.7z M141.8,229.2
	c11.5,0,20.8,9.3,20.8,20.8c0,11.5-9.3,20.8-20.8,20.8c-11.5,0-20.8-9.3-20.8-20.8C121,238.5,130.4,229.2,141.8,229.2z M214.9,166.7
	c-5.8,0-10.5-4.6-10.5-10.4l0,0c0-5.8,4.7-10.4,10.5-10.4h145.6c5.8,0,10.5,4.7,10.5,10.4c0,5.7-4.7,10.4-10.5,10.4H214.9
	L214.9,166.7z M360.4,250c5.8,0,10.5,4.7,10.5,10.4c0,5.7-4.7,10.4-10.5,10.4H214.9c-5.8,0-10.5-4.6-10.5-10.4l0,0
	c0-5.8,4.7-10.4,10.5-10.4H360.4L360.4,250z M141.8,333.4c11.5,0,20.8,9.3,20.8,20.8c0,11.5-9.3,20.8-20.8,20.8
	c-11.5,0-20.8-9.4-20.8-20.9C121,342.6,130.4,333.4,141.8,333.4z M360.4,354.2c5.8,0,10.5,4.7,10.5,10.4c0,5.8-4.7,10.4-10.5,10.4
	H214.9c-5.8,0-10.5-4.6-10.5-10.4l0,0c0-5.8,4.7-10.4,10.5-10.4L360.4,354.2L360.4,354.2z"/>
</svg>
