<?xml version="1.0" encoding="UTF-8"?>
<svg xmlns="http://www.w3.org/2000/svg" version="1.0" viewBox="0 0 500 500"><path fill="#006aff" fill-rule="evenodd" d="M468.8 257.3c-42.3 31-109.3 45.1-216.8 45.1-110.2 0-178.6-14.9-220.6-48v-89.6c0-3.1 2.7-5.7 5.8-5.7h426c3.1 0 5.6 2.6 5.6 5.7v92.5zM235.2 362.5H265v-28.7h-29.8v28.7zm233.6 100.1c0 3.3-2.5 5.8-5.6 5.8H37.1c-3.1 0-5.8-2.5-5.8-5.8V292.4c40.2 23.9 94.6 36.7 172.7 40.3v35.4c0 8.8 4 16.1 10.9 20.8 5.2 3.3 11.9 5.1 20 5.1h30.4c8.3 0 14.8-1.7 20-5.1 7.1-4.6 11-12 11-20.8v-35.3c77.7-3.1 132.1-15.3 172.5-38.4v168.2zM156 118.5c0-47.8 41.3-87.1 91.7-87.1h4.8c50.4 0 91.5 39.3 91.5 87.1v9H156v-9zm307.1 9.1h-87.9v-9C375.2 53.4 320.2.1 252.5.1h-4.8C180 .1 124.8 53.4 124.8 118.6v9H37.1C16.7 127.6 0 144.2 0 164.7v298c0 20.6 16.6 37.4 37.1 37.4h426c20.4 0 36.9-16.7 36.9-37.4v-298c0-20.6-16.4-37.1-36.9-37.1z" clip-rule="evenodd" style="fill: #006aff;"/></svg>
