<?xml version="1.0" encoding="UTF-8"?>
<!-- Generator: Adobe Illustrator 24.3.0, SVG Export Plug-In . SVG Version: 6.00 Build 0)  -->
<svg xmlns="http://www.w3.org/2000/svg" xmlns:xlink="http://www.w3.org/1999/xlink" version="1.1" id="Capa_1" x="0px" y="0px" viewBox="0 0 500 500" style="enable-background:new 0 0 500 500;" xml:space="preserve">
<style type="text/css">
	.st0{fill-rule:evenodd;clip-rule:evenodd;fill:#006AFF;}
</style>
<path class="st0" d="M21.4,104.2C9.7,104.3,0.2,95,0,83.3c0-11.5,9.6-20.8,21.4-20.8h457.1c11.8,0,21.4,9.3,21.4,20.8  c-0.2,11.7-9.7,21-21.4,20.8C478.6,104.2,21.4,104.2,21.4,104.2z M478.6,229.2c11.8,0,21.4,9.3,21.4,20.8  c-0.1,11.7-9.7,21-21.4,20.8H21.4C9.7,271,0.1,261.7,0,250c0-11.5,9.6-20.8,21.4-20.8H478.6z M478.6,395.8  c11.8,0,21.4,9.3,21.4,20.8c-0.1,11.7-9.7,21-21.4,20.8H21.4C9.7,437.7,0.1,428.4,0,416.7c0-11.5,9.6-20.8,21.4-20.8H478.6z" style="fill: #58617a;"/>
</svg>
