<?xml version="1.0" encoding="utf-8"?>
<!-- Generator: Adobe Illustrator 24.3.0, SVG Export Plug-In . SVG Version: 6.00 Build 0)  -->
<svg version="1.1" id="Capa_1" xmlns="http://www.w3.org/2000/svg" xmlns:xlink="http://www.w3.org/1999/xlink" x="0px" y="0px"
	 viewBox="0 0 500 500" style="enable-background:new 0 0 500 500;" xml:space="preserve">
<style type="text/css">
	.st0{fill-rule:evenodd;clip-rule:evenodd;fill:#006AFF;}
</style>
<path class="st0" d="M214.7,29.9c-6.6,6.2-9.9,16-9.9,29.2c0,26,12.5,38.1,39.2,38.1c26.8,0,39.3-12.1,39.3-38.1
	c0-13.2-3.3-23-10-29.2c-6.4-6-16.2-9.1-29.3-9.1C231,20.8,221.1,23.9,214.7,29.9z M244.1,118c-38.5,0-60.6-21.5-60.6-58.9
	c0-19.1,5.5-33.9,16.4-44.2C210.3,5.1,225.2,0,244.1,0c18.8,0,33.7,5.1,44.2,14.9c11,10.2,16.5,25.1,16.5,44.2
	C304.7,96.5,282.6,118,244.1,118L244.1,118z M354.4,326c7.1-1.8,11.5-9,9.7-16.1c0-0.1,0-0.1-0.1-0.2l-30.4-108.9
	c-0.4-0.9-0.8-1.9-1.1-2.9c-0.1-0.5-0.3-1-0.4-1.4c-4.6-22-24.8-37.9-48-37.9h-67.7c-23.1,0-43.3,15.9-48,37.9
	c-0.1,0.4-0.2,0.6-0.3,0.9c-0.1,0.8-0.4,1.6-0.9,2.3l-30.7,110.1c-1.8,7,2.4,14.3,9.5,16.2c0.1,0,0.1,0,0.1,0
	c3.5,1,7.2,0.6,10.3-1.3c3.1-1.6,5.3-4.5,6.3-7.8l13.5-72.8c1-5.3,5.7-8.8,11.5-8.5c5.5,0.4,9.7,4.9,9.7,10.4v219.8
	c0,7.3,6,13.4,13.4,13.4s13.4-6,13.5-13.4v-131c0-5.8,4.8-10.4,10.7-10.4h30.2c5.9,0,10.7,4.7,10.7,10.4v131.1
	c0,7.4,6,13.4,13.5,13.4c7.4,0,13.4-6,13.4-13.4V246c0-5.4,4.3-9.9,9.7-10.4c5.8-0.2,10.5,3.2,11.5,8.5l13.7,73.5
	c0.7,2.5,3,5.3,6.1,7C347.3,326.5,351,326.9,354.4,326z M384.8,304.3c4.8,18.2-6,36.9-24.3,41.7c-0.1,0-0.2,0.1-0.4,0.1
	c-12.9,3.5-26.6-0.5-35.6-10.4v130.1c0,18.9-15.7,34.2-34.9,34.2c-19.3,0-34.9-15.4-34.9-34.2V345.2h-8.5v120.7
	c0,18.9-15.7,34.2-34.9,34.2s-34.9-15.4-34.9-34.2V335.7c-9,10-22.8,13.9-35.6,10.4c-18.2-4.6-29.2-23.1-24.6-41.4
	c0-0.1,0.1-0.1,0.1-0.2l30.5-109.1c0.3-1.2,0.7-2.4,1.2-3.6c6.8-31.4,35.7-54.1,68.8-54.1h67.7c33.1,0,61.9,22.7,68.7,54
	c0.6,1.5,1.1,2.9,1.4,4.3L384.8,304.3L384.8,304.3z"/>
</svg>
