<?xml version="1.0" encoding="UTF-8"?>
<svg xmlns="http://www.w3.org/2000/svg" viewBox="0 0 500 500"><path fill="#006aff" fill-rule="evenodd" d="M473.3 338.9c.1-.5 6.5-86.2 5.8-114.3-.1-8.1-2.3-9-7.9-9.4-6.4.2-9.5 3.2-10.4 7.6l-13.4 65.6c-.1.6-.5 1.2-.8 1.8.1 5.5-1.1 11-4 15.9l-.1.1-39.9 67.6c-1.9 3.3-5.4 5.1-8.9 5.1-1.8 0-3.7-.4-5.3-1.4-4.9-3-6.6-9.4-3.6-14.4l39.9-67.5.1-.1v-.1c2.3-4 .6-10.9-3.3-13.2-3.6-2.3-8.7-2.3-11.3 1.9l-2.1 3.7c-6.4 11.5-19.8 35.4-46.5 49.2-.2.1-7.3 4.1-19.9 20.6-10.8 14.1-20 29.9-27.2 47.1l-5.3 12.7h83.4c1.6 0 3.1.2 4.6.5l48.2-41.2c3.6-3.1 7.4-6 11.2-8.8 4.6-3.5 8-7.6 11.2-12.9 3-6 5-11.3 5.5-16.1zm-70 128.9v-18.4c0-6.1-5-11.1-11-11.1h-89.6c-6 0-11 5-11 11.1v18.4c0 6.1 5 11.1 11 11.1h89.6c6.1 0 11-4.9 11-11.1zM499.9 224c.8 29.2-5.5 113.3-5.8 116.9-.9 8.1-3.8 16.3-8.7 24.6-4.6 7.8-9.8 13.9-15.7 18.3-4.4 3.3-7.9 6-11.2 8.8l-42.1 36c4.8 5.6 7.8 12.8 7.8 20.8v18.4c0 17.7-14.3 32.2-31.9 32.2h-89.6c-17.6 0-31.9-14.4-31.9-32.2v-18.4c0-10.5 5.1-19.7 12.7-25.5l11.4-27.5c7.9-18.9 18-36.2 29.9-51.8 15.8-20.6 25.5-25.8 27.3-26.5 20.8-10.8 31.7-30.2 37.5-40.7l2.6-4.5c8.1-13.2 25-17 38.8-9.2l9.2-45.2c3-14.6 15.5-24.5 30.3-24.5 11.9.7 28.9 5.4 29.4 30zM208.3 467.8v-18.4c0-6.1-4.9-11.1-11-11.1h-89.6c-6 0-11 5-11 11.1v18.4c0 6.1 4.9 11.1 11 11.1h89.6c6.1 0 11-4.9 11-11.1zM42.9 367c4.5 3.4 8.4 6.4 12.2 9.6l48.2 41.2c1.5-.3 3-.5 4.6-.5h83.4l-5.3-12.7c-7.1-17.1-16.2-32.9-27.2-47.1-12.6-16.5-19.8-20.6-19.8-20.6-26.8-13.9-40.2-37.7-46.6-49.2l-2.2-3.8c-2.6-4.2-7.6-4.2-11.4-1.9-3.8 2.3-5.6 9.2-3.3 13.2.1 0 .1.1.1.1l.1.1 39.8 67.6c3 5 1.4 11.5-3.6 14.4-1.6 1-3.5 1.5-5.3 1.5-3.6 0-7-1.8-9-5.2l-39.8-67.5s-.1 0-.1-.1c-2.8-4.9-4.1-10.5-4-15.9-.2-.6-.6-1.2-.8-1.8l-13.4-65.5c-.9-4.6-5.1-7.6-9.3-7.8-7 .4-8.8 1.7-9 9.5-.7 28.2 5.7 113.9 5.8 114.7.6 4.5 2.5 9.8 5.9 15.4 2.9 5.4 6.4 9.5 10 12.3zm173.6 56.9c7.7 5.8 12.7 15.1 12.7 25.5v18.4c0 17.7-14.3 32.1-31.8 32.1h-89.6c-17.6 0-31.8-14.4-31.8-32.1v-18.4c0-8 3-15.2 7.8-20.8l-42.1-36c-3.4-2.9-7-5.7-10.6-8.4-6.4-4.8-11.7-11-16.2-18.7-4.9-8.3-7.8-16.4-8.7-24.3C5.9 337.3-.4 253.1.3 224c.6-24.6 17.5-29.2 27.5-29.9 16.1-.8 29 9.8 32 24.4l9.2 45.2c13.9-7.7 30.7-3.9 38.8 9.2l2.6 4.5c5.8 10.5 16.8 29.8 37.9 40.8 1.4.6 11.1 5.8 26.9 26.4 12 15.7 22.1 33.1 29.9 51.8l11.4 27.5zM250 293.3c32.4-16.2 104.3-59.2 110.7-96.7 5.8-33.6 6.8-106 6.9-134.1-27.2.9-43.5-10-59.5-20.6-16-10.7-31.1-20.8-58-20.8h-.1c-27 0-42 10.1-58 20.8-16.1 10.8-32.7 22.3-59.5 20.8.1 28.2 1.2 100.4 7 133.9 6.4 37.5 78.1 80.4 110.5 96.7zm131.3-93c-9.8 57-114.8 108.6-126.8 114.2-1.4.6-2.9 1-4.4 1s-3.1-.4-4.5-1c-12-5.7-116.8-57.3-126.6-114.2-7.6-43.8-7.3-145-7.3-149.2 0-3.3 1.5-6.3 4.1-8.3 2.5-2 5.8-2.7 8.8-2 25.3 4 38.8-5 55.9-16.4C197.6 13 216.9.1 250.1.1h.1c33.2 0 52.5 12.9 69.6 24.3 17.1 11.4 30.7 20.4 56.3 16.4 3.1-.4 6.3.4 8.6 2.3s3.9 4.8 3.9 7.9c-.1 4.2.1 105.4-7.3 149.3 0-.1 0-.1 0 0zm-76.1-93.6c4.1-4.1 10.7-4.1 14.7 0 4.1 4.1 4.1 10.7 0 14.9l-86.3 87.1c-2 2-4.7 3.1-7.3 3.1-2.6 0-5.3-1.1-7.4-3.1l-38.7-39.1c-4.1-4.1-4.1-10.7 0-14.9 4.1-4.1 10.7-4.1 14.7 0l31.4 31.7 78.9-79.7z" clip-rule="evenodd" style="fill: #58617a;"/></svg>
