<?xml version="1.0" encoding="utf-8"?>
<!-- Generator: Adobe Illustrator 24.3.0, SVG Export Plug-In . SVG Version: 6.00 Build 0)  -->
<svg version="1.1" id="Capa_1" xmlns="http://www.w3.org/2000/svg" xmlns:xlink="http://www.w3.org/1999/xlink" x="0px" y="0px"
	 viewBox="0 0 500 500" style="enable-background:new 0 0 500 500;" xml:space="preserve">
<style type="text/css">
	.st0{fill:#006AFF;}
</style>
<g id="Artwork">
	<path class="st0" d="M464.7,499.6H34.8c-3.9,0-7.1-3.2-7.1-7.1V437c0-37.9,11.8-70.2,34.1-93.4c24.3-25.2,60.7-38.5,105-38.5h165.9
		c44.4,0,80.7,13.4,105,38.6c22.3,23.2,34.1,55.5,34.1,93.4v55.5C471.8,496.4,468.6,499.6,464.7,499.6z M41.9,485.4h415.7V437
		c0-34.1-10.4-63-30.1-83.5c-21.9-22.7-53.8-34.2-94.8-34.2H166.8c-41,0-72.9,11.5-94.8,34.2C52.3,374,41.9,402.8,41.9,437
		L41.9,485.4z"/>
	<path class="st0" d="M249.7,250c-81.6,0-124.8-43.2-124.8-124.8c0-41.5,11.1-73.2,33-94.4C179,10.4,209.9,0,249.7,0
		s70.8,10.4,92,30.8c22,21.2,33.1,53,33.1,94.4C374.9,206.8,331.6,250,249.7,250z M249.7,14.2c-36,0-63.6,9-81.9,26.8
		c-19,18.4-28.7,46.7-28.7,84.1s9.7,65.6,28.7,83.9c18.3,17.7,45.9,26.6,81.9,26.6s63.7-9,82.1-26.7c19.1-18.3,28.8-46.6,28.8-83.9
		S351,59.4,331.9,41C313.4,23.3,285.8,14.2,249.7,14.2z"/>
</g>
</svg>
