<?xml version="1.0" encoding="utf-8"?>
<!-- Generator: Adobe Illustrator 24.3.0, SVG Export Plug-In . SVG Version: 6.00 Build 0)  -->
<svg version="1.1" id="Capa_1" xmlns="http://www.w3.org/2000/svg" xmlns:xlink="http://www.w3.org/1999/xlink" x="0px" y="0px"
	 viewBox="0 0 500 500" style="enable-background:new 0 0 500 500;" xml:space="preserve">
<style type="text/css">
	.st0{fill-rule:evenodd;clip-rule:evenodd;fill:#006AFF;}
</style>
<path class="st0" d="M114.4,473.8c26.8-31,94-121.9,94.2-178.1c0.1-30.1-8-53.6-24-69.8s-39.4-24.4-69.5-24.5h-0.5
	c-29.8,0-53.1,8-69.1,24c-16.1,16-24.3,39.5-24.4,69.6C20.9,348.8,85.2,440.1,114.4,473.8z M115.2,180.4
	c71.9,0.2,114.7,43.4,114.5,115.5c-0.2,74.7-94.3,187.6-107.8,201.1c-4.1,4.1-10.7,4.1-14.9,0.1c0,0,0,0-0.1-0.1
	C85.2,475-0.1,364.8,0,295.2c0.1-35.5,10.7-64.7,30.6-84.6c19.8-19.8,48.9-30.2,84-30.2L115.2,180.4L115.2,180.4z M114.8,311.3
	c15.1,0,22.4-7.4,22.4-22.5c0-15.2-7.3-22.5-22.4-22.5s-22.4,7.4-22.4,22.5C92.4,303.9,99.7,311.3,114.8,311.3z M114.8,245.2
	c26.8,0,43.5,16.7,43.5,43.6s-16.6,43.6-43.5,43.6s-43.5-16.7-43.5-43.6C71.4,262,88,245.2,114.8,245.2z M420,193
	c20.1-24,58.8-79.9,59-112.8c0.1-38.5-20.1-58.9-58.6-59H420c-18.9,0-33.4,5.1-43.4,14.9c-10,10-15.1,24.7-15.2,43.8
	C361.4,113.1,399.9,169,420,193z M420.5,0c49.9,0.1,79.7,30.1,79.5,80.2c-0.1,50.9-63.6,127-72.6,136c-4.1,4.1-10.7,4.1-14.9,0
	c-9-9-72.2-85.2-72-136.5c0.1-24.5,7.5-44.8,21.3-58.7C375.6,7.3,395.8,0,420,0H420.5L420.5,0z M420.2,86.9c8,0,11.4-3.3,11.4-11.4
	s-3.3-11.4-11.4-11.4c-8,0-11.4,3.3-11.4,11.4S412.1,86.9,420.2,86.9z M420.2,43.1c19.7,0,32.4,12.7,32.4,32.5s-12.7,32.5-32.4,32.5
	c-19.7,0-32.4-12.7-32.4-32.5C387.8,55.8,400.5,43.1,420.2,43.1z M322.6,240c-5.8-0.1-10.5-4.8-10.5-10.6c0-4.5,2.9-8.5,7.2-10
	c6.9-2.3,13.7-4.3,20.4-6.1c5.7-1.3,11.3,2.3,12.7,8c1.2,5.4-1.9,10.9-7.3,12.5c-6.2,1.6-12.7,3.6-19.1,5.8
	C324.9,239.8,323.8,240,322.6,240L322.6,240z M346.1,437c5.2-2.7,11.5-0.6,14.2,4.5c2.7,5.2,0.6,11.5-4.5,14.2
	c-0.1,0.1-0.4,0.1-0.5,0.2c-6.3,3.1-12.9,5.9-19.9,8.5c-5.4,2.1-11.5-0.7-13.5-6.2l0,0c-2.1-5.5,0.7-11.5,6.1-13.6
	C334.4,442.4,340.4,439.8,346.1,437L346.1,437z M387.2,378.9c-2.7,0-5.3-1-7.2-2.8c-4.4-4-9.3-7.3-14.7-9.9c-5.2-2.7-7.2-9-4.5-14.2
	c2.7-5.2,9-7.2,14.2-4.5l0,0c8,4.2,14.4,8.5,19.4,13.2c4.3,4,4.4,10.7,0.4,14.9C392.8,377.7,390,378.9,387.2,378.9z M382.9,225.8
	c-5.8-0.1-10.5-4.9-10.4-10.7c0.1-5.1,3.8-9.5,9-10.3c4.2-0.6,7-0.9,7.8-0.9c5.8-0.4,10.7,4,11.1,9.7c0,0.1,0,0.1,0,0.2
	c0.4,5.8-4.1,10.8-9.9,11.2c-2,0.2-4.1,0.5-6,0.8C383.9,225.8,383.4,225.8,382.9,225.8z M399.1,396c5.5,2.1,8.2,8.1,6.1,13.6
	c-3,7.7-7.5,14.7-13.1,20.7c-3.8,4.5-10.4,5.1-14.9,1.4c-4.5-3.8-5.1-10.4-1.4-14.9c0.2-0.3,0.5-0.6,0.8-0.9c4.1-4.4,7-9,8.8-13.7
	c2-5.4,7.9-8.2,13.3-6.3C399,396,399,396,399.1,396L399.1,396z M332,351.7c-1.2,0-2.4-0.2-3.6-0.6c-6.6-2.4-13.2-4.8-19.6-7.3
	c-5.3-2.4-7.8-8.7-5.3-14c2.2-5,7.9-7.5,13-5.7c6.3,2.5,12.7,4.8,19.1,7.1c5.8-0.1,10.6,4.6,10.7,10.5c0.1,5.8-4.6,10.6-10.5,10.7
	C334.4,352.4,333.2,352.2,332,351.7z M229.9,468.1c5.7-0.9,11,3,11.9,8.7c0,0.1,0,0.1,0,0.2c0.9,5.8-3.1,11.1-8.8,12h-0.1
	c-7.1,1.1-14.1,2.1-20.8,2.8c-5.8,0.7-11-3.4-11.7-9.2c-0.7-5.8,3.3-11,9-11.7h0.1C216.1,470.1,222.9,469.2,229.9,468.1L229.9,468.1
	z M289.7,456.5c5.7-1.4,11.4,2.1,12.8,7.7c1.4,5.7-2.1,11.4-7.7,12.8c-6.8,1.7-13.7,3.3-20.6,4.7c-5.7,1.2-11.3-2.5-12.5-8.2
	c-1.2-5.7,2.5-11.3,8.2-12.5C276.5,459.7,283.2,458.2,289.7,456.5z M269.6,270.7c-5.8-0.1-10.5-4.8-10.5-10.7c0-2.4,0.9-4.8,2.4-6.7
	c4.6-5.4,10.5-10.6,17.9-15.4c5.1-2.9,11.5-1.2,14.4,3.8c2.7,4.7,1.5,10.7-2.9,13.9c-5,3.1-9.5,7-13.3,11.4
	C275.8,269.4,272.8,270.7,269.6,270.7z M169,475c5.8-0.5,10.8,3.8,11.3,9.6v0.1c0.5,5.8-3.8,10.9-9.6,11.3h-0.1
	c-6.4,0.5-12.8,0.9-19.2,1.3h-0.6c-5.5,0-10.9-4.2-11.3-9.7c-0.5-5.8,2.8-10.7,8.5-11.3l2.3-0.1C153.1,476,159.7,475.7,169,475z
	 M276.3,325.1c-2.4,0-4.8-0.9-6.7-2.4c-6.7-5.3-12-12-15.7-19.7c-2.2-5.4,0.4-11.5,5.7-13.8c5.1-2.1,11,0.1,13.4,5.1
	c1.9,4.3,5.2,8.3,9.8,12.1c4.5,3.7,5.2,10.3,1.5,14.8C282.5,323.6,279.5,325.1,276.3,325.1z"/>
</svg>
