<?xml version="1.0" encoding="UTF-8"?>
<!-- Generator: Adobe Illustrator 24.3.0, SVG Export Plug-In . SVG Version: 6.00 Build 0)  -->
<svg xmlns="http://www.w3.org/2000/svg" xmlns:xlink="http://www.w3.org/1999/xlink" version="1.1" id="Capa_1" x="0px" y="0px" viewBox="0 0 500 500" style="enable-background:new 0 0 500 500;" xml:space="preserve">
<style type="text/css">
	.st0{fill-rule:evenodd;clip-rule:evenodd;fill:#006AFF;}
</style>
<desc>Created with sketchtool.</desc>
<g id="Page-1">
	<g id="Sábana-de-iconos-Copy" transform="translate(-600.000000, -98.000000)">
		<path id="ic_refresh" class="st0" d="M1091.4,99.2c-5.5-2.3-12-1.2-16.4,2.8l-71.6,67.9c-43.9-33.6-98.3-51.6-154.3-51.2    c-125.9-0.2-232,90.3-247.2,210.8S667.6,562.4,789.8,591c122.3,28.7,247.5-35.4,291.6-149.1c2.8-7.3-1-15.4-8.5-18.1    c-3.6-1.4-7.8-1.3-11.3,0.3c-3.6,1.6-6.4,4.4-7.8,8c-33.2,85.3-119.4,140.4-213.8,136.7c-94.4-3.7-175.7-65.4-201.5-153    c-25.9-87.6,9.5-181.4,87.6-232.4s181.6-48.1,256.4,7.5l-66,62.8c-4.3,4-5.7,10.2-3.4,15.5s7.7,8.8,13.7,8.8l150.2-9    c7.4-0.4,13.4-6.1,13.8-13.3l9.1-141.4C1100.7,107.9,1097.3,101.9,1091.4,99.2z" style="fill: #58617a;"/>
	</g>
</g>
</svg>
