<?xml version="1.0" encoding="utf-8"?>
<!-- Generator: Adobe Illustrator 24.3.0, SVG Export Plug-In . SVG Version: 6.00 Build 0)  -->
<svg version="1.1" id="Capa_1" xmlns="http://www.w3.org/2000/svg" xmlns:xlink="http://www.w3.org/1999/xlink" x="0px" y="0px"
	 viewBox="0 0 500 500" style="enable-background:new 0 0 500 500;" xml:space="preserve">
<style type="text/css">
	.st0{fill-rule:evenodd;clip-rule:evenodd;fill:#006AFF;}
</style>
<path class="st0" d="M159.1,373.6c32.8,0,41.8-12,41.8-55.8c0-27.3-4-41.9-13.4-49c-6-4.6-15.4-6.8-28.4-6.8
	c-13.2,0-22.5,2.3-28.6,6.9c-9.2,7-13.2,21.7-13.2,48.8C117.3,361.6,126.3,373.6,159.1,373.6z M159.2,229.5
	c-28.4,0-28.4,6.3-28.4,14.3c0,0.8,0.1,1.2,0.1,1.8c7.9-2.8,17.1-4.4,28.2-4.4c11.2,0,20.4,1.6,28.3,4.5c0.1-0.6,0.1-1.1,0.1-1.9
	C187.6,235.8,187.6,229.5,159.2,229.5z M236.1,299.5c5.8,0,10.5,4.6,10.5,10.4l0,0v16.4c0,5.8-4.7,10.4-10.4,10.4
	c-5.8,0-10.5-4.6-10.5-10.4c0,0,0,0,0-0.1v-6h-3.9c-0.1,13.2-1.4,25-4.2,35.1l16.2,4.9c4.6,1.4,7.6,5.8,7.4,10.5l-1.4,24.7
	c-0.3,5.5-4.9,9.9-10.4,9.9h-0.6c-5.8-0.3-10.2-5.2-9.9-11l0.9-16.6l-11-3.3c-9.2,12.5-24.6,19.8-49.7,19.8
	c-25.2,0-40.6-7.3-49.8-19.9L98,377.9l0.9,16.6c0.3,5.7-4.1,10.6-9.8,11h-0.1h-0.6c-5.5,0-10.1-4.3-10.4-9.8l-1.3-24.7
	c-0.3-4.8,2.8-9.1,7.3-10.5l16.6-5c-2.8-10.2-4-21.8-4.1-35.1h-3.9v6c0,5.8-4.7,10.4-10.4,10.4c-5.8,0-10.5-4.6-10.5-10.4
	c0,0,0,0,0-0.1v-16.4c0-5.8,4.7-10.4,10.4-10.4l0,0H97c0.9-10.2,2.9-20,6.8-28.7l-19.9-6c-4.6-1.4-7.6-5.8-7.3-10.5l1.3-24.7
	c0.3-5.8,5.1-10.5,11-9.9c5.8,0.3,10.2,5.2,9.9,11l0,0l-0.9,16.6l12.6,3.8c-0.4-2.3-0.6-4.8-0.6-7.2c0-35.1,34.5-35.1,49.3-35.1
	c14.7,0,49.2,0,49.2,35.1c0,2.5-0.2,4.8-0.6,7l12-3.6l-0.9-16.6c-0.3-5.8,4.1-10.7,9.8-11l0,0c5.5-0.5,10.5,3.6,11,9.2
	c0,0.2,0,0.4,0,0.6l1.4,24.7c0.2,4.8-2.8,9.1-7.4,10.5l-19.5,5.9c3.9,8.8,6,18.6,6.8,28.9C221.1,299.5,236.1,299.5,236.1,299.5z
	 M158.4,281.2c5.8,0,10.5,4.6,10.5,10.4l0,0V353c0,5.8-4.7,10.5-10.5,10.5S148,358.8,148,353v-61.5
	C148,285.9,152.7,281.2,158.4,281.2L158.4,281.2z M479.2,179.8V94.4c-9.9,7.5-23.1,13.7-39.9,18.8c-28.8,8.7-66.7,13.4-106.6,13.4
	s-77.7-4.8-106.6-13.4c-17-5.1-30.5-11.5-40.4-19.1v50.1c22.9,4.8,38.8,15.4,53.4,25c20.1,13.3,35.9,23.8,66.5,19.1
	c3.1-0.4,6.3,0.4,8.7,2.3c2.3,2,3.9,4.8,4,7.8c0,1.3,0,10-0.1,22.9c4.8,0.1,9.6,0.4,14.5,0.4c37.9,0,73.6-4.5,100.5-12.5
	C459.8,201.1,474.1,189,479.2,179.8L479.2,179.8z M479.2,296.2v-86.4c-10.5,7.8-24,14.4-39.9,19.2c-28.8,8.7-66.7,13.4-106.6,13.4
	c-5,0-9.9-0.3-14.8-0.4c-0.4,28.3-1.6,65.2-4.2,95.3c6.3,0.3,12.5,0.6,19,0.6c37.9,0,73.6-4.5,100.5-12.5
	C459.7,317.5,474.2,305.3,479.2,296.2L479.2,296.2z M479.2,403.1v-76.8c-10.5,7.8-24,14.4-39.9,19.2c-28.9,8.7-66.7,13.4-106.6,13.4
	c-7.2,0-14.2-0.4-21.1-0.7c-0.5,4-1.1,7.7-1.6,11.1l0,0c-4.8,27.2-29.8,53.6-57.8,75.6c23.6,4.9,51.4,7.6,80.3,7.6
	c37.8,0,73.5-4.5,100.6-12.6C463.7,430.7,479.2,418.3,479.2,403.1z M159.1,478.1c37.6-18.4,122.6-68.5,130.2-112.4
	c0.9-5.1,1.6-11.1,2.3-17.6c0-0.4-0.2-0.9-0.1-1.4c0.1-0.6,0.4-1.1,0.5-1.6c3.3-33.2,4.6-79.6,5.1-111.3c-0.2-1-0.5-2-0.4-3
	c0-0.7,0.3-1.3,0.5-2c0.1-7.4,0.1-13.9,0.1-18.9c-31.9,1.7-51.2-11-69.8-23.3c-18.8-12.4-36.6-24.1-68.3-24.2h-0.1
	c-31.8,0-49.6,11.7-68.4,24.2c-18.9,12.5-38.1,25-69.8,23.5c0.1,31.1,1.2,116.4,8.1,155.6C36.7,409.5,121.6,459.6,159.1,478.1
	L159.1,478.1z M231.8,33.4c-25.5,7.7-40.8,18-44.8,29.9c0,0.1,0.1,0.1,0.1,0.2c3.9,11.9,19.5,22.2,45,29.9
	c27,8,62.6,12.5,100.5,12.5s73.6-4.5,100.5-12.5c24.8-7.5,40.3-17.4,44.7-29c0.1-0.1,0.2-0.3,0.3-0.4c-3.7-12.4-18.8-22.6-45.2-30.6
	c-26.9-8-62.7-12.5-100.6-12.5C294.4,20.8,258.7,25.3,231.8,33.4L231.8,33.4z M439,13.4c40.5,12.2,61,31.2,61,56.6v333
	c0,25.5-20.5,44.5-61,56.7c-29,8.7-66.9,13.4-106.7,13.4c-37.9,0-73.9-4.5-102.4-12.4c-21.2,14.3-43.4,27-66.5,38.3
	c-2.8,1.4-6.1,1.4-8.9,0c-5.5-2.6-134.8-64.2-146.2-129.8C-0.4,319.2,0,203.3,0,198.4c0.1-5.8,4.8-10.5,10.5-10.4
	c0.8,0,1.6,0.1,2.3,0.3c30.3,4.8,46.2-5.8,66.3-19.1c19.6-12.9,41.8-27.6,79.9-27.6h0.1c2,0,3.8,0.2,5.5,0.3V70.1
	c0-4.1,0.6-8,1.6-11.7l0.1-0.1c5.7-19.6,25.7-34.7,59.3-44.8C254.6,4.8,292.5,0,332.4,0C372.4,0,410.2,4.8,439,13.4L439,13.4z"/>
</svg>
