<?xml version="1.0" encoding="UTF-8"?>
<svg xmlns="http://www.w3.org/2000/svg" viewBox="0 0 500 500"><path fill="#006aff" fill-rule="evenodd" d="M191.7 90.8c-13.2 12.9-19.9 33.2-19.9 60 0 26.8 6.7 47 19.9 59.9 12.7 12.5 32.2 18.9 57.6 18.9s44.9-6.3 57.8-18.9c13.3-12.9 20-33.1 20-59.9s-6.7-47-20-60c-12.9-12.6-32.3-18.9-57.7-18.9-25.5 0-44.9 6.3-57.7 18.9zm57.7 159c-30.8 0-54.9-8.3-71.4-24.5-17.2-16.9-26-41.9-26-74.5 0-32.5 8.8-57.7 26-74.6 16.6-16.4 40.7-24.7 71.4-24.7s54.9 8.3 71.6 24.6c17.4 16.9 26.2 42 26.2 74.6s-8.8 57.6-26.2 74.5c-16.8 16.4-40.8 24.6-71.6 24.6zM79 216.4c-5.3 5.2-8 13.9-8 25.9s2.7 20.6 8 25.8c5.1 5.1 13.5 7.6 24.8 7.6 11.4 0 19.8-2.6 25-7.6 5.3-5.2 8-13.9 8-25.8 0-12-2.7-20.6-8-25.8-5.2-5.1-13.6-7.7-25-7.7-11.3-.1-19.6 2.5-24.8 7.6zm24.8 79.5c-16.6 0-29.7-4.5-38.7-13.2-9.3-9.2-14.1-22.8-14.1-40.4s4.8-31.2 14.1-40.4c9-8.8 22.1-13.4 38.7-13.4 16.7 0 29.7 4.5 38.8 13.3 9.4 9.2 14.2 22.8 14.2 40.4 0 17.6-4.8 31.2-14.2 40.4-9 8.8-22.1 13.3-38.8 13.3zM371.3 216c-5.3 5.2-8 13.9-8 25.9 0 11.9 2.7 20.6 8 25.8 5.2 5.1 13.6 7.6 25 7.6s19.7-2.6 24.9-7.6c5.3-5.2 8-13.9 8-25.8 0-12-2.7-20.6-8-25.9-5.1-5.1-13.5-7.6-24.8-7.6-11.5 0-19.9 2.6-25.1 7.6zm-13.8 66.3c-9.4-9.2-14.2-22.8-14.2-40.4s4.8-31.2 14.2-40.4c9-8.9 22.1-13.4 38.8-13.4s29.7 4.5 38.8 13.3c9.3 9.2 14.1 22.8 14.1 40.5 0 17.6-4.7 31.2-14.1 40.3-9 8.8-22.1 13.2-38.8 13.2-16.7.1-29.8-4.3-38.8-13.1zm122.6 110.3v-13.9c0-14.4-4.2-26.5-12.4-35.1-9-9.5-22.6-14.4-39.3-14.4h-30.7c14.3 16.6 22.7 38.3 24.5 63.4h57.9zm-77.4 34.6v-23.9c0-26.1-7.8-48.2-22.5-63.8-16.1-17-40.9-26.1-71.6-26.1H189.9c-30.7 0-55.2 9.1-71.4 26.1C103.8 355 96 377.1 96 403.3v23.9h306.7zM76.6 393c1.8-25.1 10-46.8 24.3-63.4H71.6c-16.7 0-30.3 4.9-39.3 14.4-8 8.5-12.4 20.6-12.4 35v14h56.7zm405.5-63.4c11.7 12.4 17.9 29.4 17.9 49v18c.1 8.9-7 16.1-15.9 16.2h-61.4v23.5c0 6.2-5 11.2-11.2 11.2H87.3c-6.1 0-11.1-5-11.2-11.2v-23.1h-60c-9-.1-16.2-7.3-16.1-16.3V379c0-19.6 6.2-36.6 17.9-49.2 12.8-13.3 31.3-20.4 53.6-20.4h53.2c17.7-10.7 39.8-16.2 65.2-16.2h118.8c25.1 0 47 5.3 64.7 15.8h55c22.4 0 40.9 7 53.7 20.6z" clip-rule="evenodd" style="fill: #015d8e;"/></svg>