<?xml version="1.0" encoding="utf-8"?>
<!-- Generator: Adobe Illustrator 24.3.0, SVG Export Plug-In . SVG Version: 6.00 Build 0)  -->
<svg version="1.1" id="Capa_1" xmlns="http://www.w3.org/2000/svg" xmlns:xlink="http://www.w3.org/1999/xlink" x="0px" y="0px"
	 viewBox="0 0 500 500" style="enable-background:new 0 0 500 500;" xml:space="preserve">
<style type="text/css">
	.st0{fill-rule:evenodd;clip-rule:evenodd;fill:#006AFF;}
</style>
<path class="st0" d="M 374.6 238.8 C 380.4 238.8 385 243.5 385 249.2 C 385 254.9 380.3 259.6 374.6 259.6 L 260.3 259.6 L 239.5 259.7 L 125.4 259.7 C 119.6 259.7 115 255 115 249.3 C 115 243.6 119.7 238.9 125.4 238.9 L 239.4 238.9 L 260.2 238.8 L 374.6 238.8 Z M 261 479 C 312.2 478.1 479.1 458.8 479.1 250.6 C 479.1 160.5 448.2 95.4 387.5 57.3 C 337.9 26.2 281.8 21.6 260 21.1 C 254.5 21 248 20.9 241.9 20.9 L 237.1 20.9 C 215.4 21.1 159.7 24.8 110.8 55.6 C 51 93.1 20.8 158.2 20.8 249.2 C 20.8 340.3 51.2 405.7 111.5 443.6 C 160.9 474.7 216.9 478.7 238.8 479.1 C 241.3 479.2 243.8 479.2 246.3 479.2 C 251.4 479.2 256.5 479.2 261 479 Z M 260.4 0.2 C 309.3 1.4 500 20.7 500 250.6 C 500 481 309.2 498.9 261.5 499.8 C 256.9 499.9 251.6 499.9 246.3 499.9 C 243.7 499.9 241.1 499.9 238.5 499.8 C 188.3 499.2 0 481.1 0 249.2 C 0 17.6 186.6 0.4 236.8 0 L 241.8 0 C 248.2 0 254.7 0.1 260.4 0.2 Z"/>
</svg>
