<?xml version="1.0" encoding="utf-8"?>
<!-- Generator: Adobe Illustrator 27.6.1, SVG Export Plug-In . SVG Version: 6.00 Build 0)  -->
<svg version="1.1" id="Capa_1" xmlns="http://www.w3.org/2000/svg" xmlns:xlink="http://www.w3.org/1999/xlink" x="0px" y="0px"
	 viewBox="0 0 500 500" style="enable-background:new 0 0 500 500;" xml:space="preserve">
<style type="text/css">
	.st0{fill:#0066FF;}
</style>
<path class="st0" d="M439.4,42.3H60.6C27.2,42.3,0,69.5,0,102.9v294.2c0,33.4,27.2,60.6,60.6,60.6h376.7c34.6,0,62.7-28.1,62.7-62.7
	V102.9C500,69.5,472.8,42.3,439.4,42.3z M486.6,395c0,27.2-22.1,49.3-49.3,49.3H60.6c-26,0-47.2-21.2-47.2-47.2V156.5h473.2V395
	L486.6,395z M486.6,143.3H13.4v-40.4c0-26,21.2-47.1,47.2-47.1h378.8c26,0,47.2,21.2,47.2,47.1V143.3z"/>
<path class="st0" d="M141.5,99.5c0,7.8-3.1,12.6-5.7,15.3c-2.6,2.7-7.5,6-15.6,6s-12.9-3.3-15.6-6c-2.6-2.7-5.7-7.5-5.7-15.3
	c0-12.8,8.6-21.4,21.3-21.4S141.5,86.7,141.5,99.5z"/>
<path class="st0" d="M401.3,99.4c0,7.8-3.1,12.6-5.7,15.3c-2.6,2.8-7.6,6.1-15.6,6.1c-8,0-12.9-3.3-15.6-6
	c-2.6-2.7-5.8-7.5-5.8-15.3c0-12.8,8.6-21.4,21.3-21.4c7.6,0,12.4,3,15.1,5.5C397.9,86.4,401.3,91.3,401.3,99.4z"/>
<g>
	<path class="st0" d="M109.2,190.5H87.5c-11.6,0-21,9.4-21,21v17.3c0,11.6,9.4,21,21,21h21.7c11.6,0,21-9.4,21-21v-17.3
		C130.3,199.9,120.8,190.5,109.2,190.5z M118.5,228.9c0,5.1-4.1,9.2-9.2,9.2H87.5c-5.1,0-9.2-4.1-9.2-9.2v-17.3
		c0-5.1,4.1-9.2,9.2-9.2h21.7c5.1,0,9.2,4.1,9.2,9.2C118.5,211.5,118.5,228.9,118.5,228.9z"/>
	<path class="st0" d="M204.1,190.5h-21.7c-11.6,0-21,9.4-21,21v17.3c0,11.6,9.4,21,21,21h21.7c11.6,0,21-9.4,21-21v-17.3
		C225.1,199.9,215.7,190.5,204.1,190.5z M213.3,228.9c0,5.1-4.1,9.2-9.2,9.2h-21.7c-5.1,0-9.2-4.1-9.2-9.2v-17.3
		c0-5.1,4.1-9.2,9.2-9.2h21.7c5.1,0,9.2,4.1,9.2,9.2V228.9z"/>
	<path class="st0" d="M302.6,190.5h-21.7c-11.6,0-21,9.4-21,21v17.3c0,11.6,9.4,21,21,21h21.7c11.6,0,21-9.4,21-21v-17.3
		C323.6,199.9,314.2,190.5,302.6,190.5z M311.8,228.9c0,5.1-4.1,9.2-9.2,9.2h-21.7c-5.1,0-9.2-4.1-9.2-9.2v-17.3
		c0-5.1,4.1-9.2,9.2-9.2h21.7c5.1,0,9.2,4.1,9.2,9.2V228.9z"/>
	<path class="st0" d="M399.2,190.5h-21.7c-11.6,0-21,9.4-21,21v17.3c0,11.6,9.4,21,21,21h21.7c11.6,0,21-9.4,21-21v-17.3
		C420.3,199.9,410.8,190.5,399.2,190.5z M408.5,228.9c0,5.1-4.1,9.2-9.2,9.2h-21.7c-5.1,0-9.2-4.1-9.2-9.2v-17.3
		c0-5.1,4.1-9.2,9.2-9.2h21.7c5.1,0,9.2,4.1,9.2,9.2V228.9z"/>
	<path class="st0" d="M109.2,270.7H87.5c-11.6,0-21,9.4-21,21v17.3c0,11.6,9.4,21,21,21h21.7c11.6,0,21-9.4,21-21v-17.3
		C130.3,280.2,120.8,270.7,109.2,270.7z M118.5,309.1c0,5.1-4.1,9.2-9.2,9.2H87.5c-5.1,0-9.2-4.1-9.2-9.2v-17.3
		c0-5.1,4.1-9.2,9.2-9.2h21.7c5.1,0,9.2,4.1,9.2,9.2C118.5,291.7,118.5,309.1,118.5,309.1z"/>
	<path class="st0" d="M204.1,270.7h-21.7c-11.6,0-21,9.4-21,21v17.3c0,11.6,9.4,21,21,21h21.7c11.6,0,21-9.4,21-21v-17.3
		C225.1,280.2,215.7,270.7,204.1,270.7z M213.3,309.1c0,5.1-4.1,9.2-9.2,9.2h-21.7c-5.1,0-9.2-4.1-9.2-9.2v-17.3
		c0-5.1,4.1-9.2,9.2-9.2h21.7c5.1,0,9.2,4.1,9.2,9.2V309.1z"/>
	<path class="st0" d="M302.6,270.7h-21.7c-11.6,0-21,9.4-21,21v17.3c0,11.6,9.4,21,21,21h21.7c11.6,0,21-9.4,21-21v-17.3
		C323.6,280.2,314.2,270.7,302.6,270.7z M311.8,309.1c0,5.1-4.1,9.2-9.2,9.2h-21.7c-5.1,0-9.2-4.1-9.2-9.2v-17.3
		c0-5.1,4.1-9.2,9.2-9.2h21.7c5.1,0,9.2,4.1,9.2,9.2V309.1z"/>
	<path class="st0" d="M109.2,351H87.5c-11.6,0-21,9.4-21,21v17.3c0,11.6,9.4,21,21,21h21.7c11.6,0,21-9.4,21-21V372
		C130.3,360.4,120.8,351,109.2,351L109.2,351z M118.5,389.3c0,5.1-4.1,9.2-9.2,9.2H87.5c-5.1,0-9.2-4.1-9.2-9.2V372
		c0-5.1,4.1-9.2,9.2-9.2h21.7c5.1,0,9.2,4.1,9.2,9.2C118.5,372,118.5,389.3,118.5,389.3z"/>
	<path class="st0" d="M204.1,351h-21.7c-11.6,0-21,9.4-21,21v17.3c0,11.6,9.4,21,21,21h21.7c11.6,0,21-9.4,21-21V372
		C225.1,360.4,215.7,351,204.1,351L204.1,351z M213.3,389.3c0,5.1-4.1,9.2-9.2,9.2h-21.7c-5.1,0-9.2-4.1-9.2-9.2V372
		c0-5.1,4.1-9.2,9.2-9.2h21.7c5.1,0,9.2,4.1,9.2,9.2V389.3z"/>
	<path class="st0" d="M302.6,351h-21.7c-11.6,0-21,9.4-21,21v17.3c0,11.6,9.4,21,21,21h21.7c11.6,0,21-9.4,21-21V372
		C323.6,360.4,314.2,351,302.6,351L302.6,351z M311.8,389.3c0,5.1-4.1,9.2-9.2,9.2h-21.7c-5.1,0-9.2-4.1-9.2-9.2V372
		c0-5.1,4.1-9.2,9.2-9.2h21.7c5.1,0,9.2,4.1,9.2,9.2V389.3z"/>
	<path class="st0" d="M399.2,270.7h-21.7c-11.6,0-21,9.4-21,21v17.3c0,11.6,9.4,21,21,21h21.7c11.6,0,21-9.4,21-21v-17.3
		C420.3,280.2,410.8,270.7,399.2,270.7z M408.5,309.1c0,5.1-4.1,9.2-9.2,9.2h-21.7c-5.1,0-9.2-4.1-9.2-9.2v-17.3
		c0-5.1,4.1-9.2,9.2-9.2h21.7c5.1,0,9.2,4.1,9.2,9.2V309.1z"/>
</g>
</svg>
