<?xml version="1.0" encoding="utf-8"?>
<!-- Generator: Adobe Illustrator 24.3.0, SVG Export Plug-In . SVG Version: 6.00 Build 0)  -->
<svg version="1.1" id="Capa_1" xmlns="http://www.w3.org/2000/svg" xmlns:xlink="http://www.w3.org/1999/xlink" x="0px" y="0px"
	 viewBox="0 0 500 500" style="enable-background:new 0 0 500 500;" xml:space="preserve">
<style type="text/css">
	.st0{fill-rule:evenodd;clip-rule:evenodd;fill:#006AFF;}
</style>
<path class="st0" d="M416.9,469.5V30.6c0-4.5-5.5-9.7-10.3-9.7H93.4c-4.7,0-10.3,5.3-10.3,9.7v438.9c0,4.8,5.2,9.7,10.3,9.7h102.9
	v-119c0-5.8,4.6-10.4,10.3-10.4h86.9c5.7,0,10.3,4.7,10.3,10.4v119h102.9C411.7,479.2,416.9,474.2,416.9,469.5L416.9,469.5z
	 M216.9,478.4h66.3V370.5h-66.2L216.9,478.4L216.9,478.4z M406.6,0c16.1,0,30.9,14.6,30.9,30.6v438.9c0,16.2-14.4,30.5-30.9,30.5
	H93.5c-16.4,0-30.9-14.3-30.9-30.5v-439C62.6,14.6,77.3,0,93.4,0H406.6L406.6,0z M162,132.5h45.1V86.9h-45.2L162,132.5L162,132.5z
	 M217.4,66c5.7,0,10.3,4.7,10.3,10.4v66.4c0,5.8-4.6,10.4-10.3,10.4h-65.8c-5.7,0-10.3-4.7-10.3-10.4l0,0V76.4
	c0-5.8,4.6-10.4,10.3-10.4H217.4z M291.9,132.5h45.2V86.9h-45.2V132.5z M347.4,66c5.7,0,10.3,4.7,10.3,10.4v66.4
	c0,5.8-4.6,10.4-10.3,10.4h-65.7c-5.7,0-10.3-4.7-10.3-10.4l0,0V76.4c0-5.8,4.6-10.4,10.3-10.4H347.4z M162,262.9h45.2v-45.6H162
	V262.9L162,262.9z M217.4,196.5c5.7,0,10.3,4.6,10.3,10.4v66.4c0,5.8-4.6,10.4-10.3,10.4h-65.8c-5.7,0-10.3-4.7-10.3-10.4l0,0v-66.4
	c0-5.8,4.6-10.4,10.3-10.4H217.4L217.4,196.5z M291.9,262.9h45.2v-45.6h-45.2V262.9z M347.4,196.5c5.7,0,10.3,4.6,10.3,10.4v66.4
	c0,5.8-4.6,10.4-10.3,10.4h-65.7c-5.7,0-10.3-4.6-10.3-10.4v-0.1v-66.4c0-5.8,4.6-10.4,10.3-10.4L347.4,196.5L347.4,196.5z"/>
</svg>
