<svg xmlns="http://www.w3.org/2000/svg" viewBox="-18446.301 6093.552 111.373 30.548">
  <style>
  .cls-1 {
    fill: #ffffff;
  }
  </style>
  <g id="Logo_telefonica" data-name="Logo telefonica" transform="translate(-18511 6068.552)">
    <path id="XMLID_13_" class="cls-1" d="M94.771,38.336C93.08,40.7,90.825,42.958,88.8,42.958c-.9,0-1.24-.451-1.24-1.465a8.761,8.761,0,0,1,.225-1.8,17.469,17.469,0,0,0,5.523-3.833A4.491,4.491,0,0,0,94.883,32.7c0-1.015-.564-1.465-1.8-1.578a8.6,8.6,0,0,0-5.411,2.705,11.477,11.477,0,0,0-3.269,7.44c0,1.8.789,3.269,3.156,3.156,2.48-.113,4.96-2.029,6.2-3.382a8.843,8.843,0,0,0-.225,1.578A3.249,3.249,0,0,0,95.9,45.889l.338-.113a2.776,2.776,0,0,1-.113-1.353A20.654,20.654,0,0,1,97.7,38.787c1.691-4.4,4.284-9.356,5.411-12.287l-2.705.564a1.216,1.216,0,0,0-.789.676c-1.24,2.705-2.593,5.636-4.171,9.356a12.3,12.3,0,0,1-.676,1.24m-2.48-5.749c.451,0,.564.338.564.676,0,1.691-2.142,3.833-4.734,5.411.676-2.593,2.593-6.087,4.171-6.087" transform="translate(2.507 0.191)"/>
    <path id="XMLID_10_" class="cls-1" d="M131.5,42.2c0,1.24.789,1.916,2.254,1.916a6.528,6.528,0,0,0,4.284-2.142c.225,1.353,1.127,2.254,3.044,2.142a7.71,7.71,0,0,0,5.185-2.818v.451a2.1,2.1,0,0,0,2.254,2.367c1.691,0,3.494-1.24,5.073-3.382h0a9.677,9.677,0,0,0-.338,1.916,2.713,2.713,0,0,0,2.254,2.818l.338-.113c-.451-1.127.225-4.058.451-5.073a80.723,80.723,0,0,1,3.494-8.68,5.393,5.393,0,0,0-2.367-.676c-3.382-.113-6.876,1.24-9.356,5.749a18.34,18.34,0,0,0-1.24,2.593,4.259,4.259,0,0,1-.9,1.015c-.9.9-2.142,2.029-3.494,2.029-.789,0-1.127-.564-1.127-1.465,0-3.607,3.156-8.905,5.3-9.018.564,0,.789.225.789.789a3.215,3.215,0,0,1-1.015,1.916l.225.225c1.465-.564,2.705-1.578,2.818-2.593,0-1.24-1.353-1.465-2.593-1.465a7.618,7.618,0,0,0-5.411,2.593,13.344,13.344,0,0,0-3.382,6.989,4.633,4.633,0,0,1-2.705,1.916.6.6,0,0,1-.676-.676,9.924,9.924,0,0,1,.564-2.142c.9-2.254,2.254-5.185,3.833-8.567,0,0-2.48.451-2.818.564a1.192,1.192,0,0,0-.789.676c-1.015,2.254-2.367,4.847-3.156,6.763A13.761,13.761,0,0,0,131.5,42.2m23.334-9.807a4.765,4.765,0,0,1,2.029-.338c-.225.451-1.127,2.367-1.916,4.058-1.127,2.705-2.931,5.523-4.622,5.862-.564.113-.9-.113-.9-.676.113-2.254,2.705-7.553,5.411-8.905" transform="translate(8.5 0.725)"/>
    <path id="XMLID_7_" class="cls-1" d="M100.869,34.094a12.069,12.069,0,0,0-3.269,7.44c0,1.8.9,3.269,3.269,3.156,2.593-.113,4.847-1.578,6.876-3.607-.564,1.353-.9,2.48-1.24,3.156-.789,1.8-1.24,3.382-2.48,4.284l.113.225c3.382.225,4.622-2.142,5.974-5.974s2.593-7.214,3.494-9.582a31,31,0,0,0,4.734-.225c-3.044,1.353-5.636,6.2-5.3,9.356.113,1.465,1.015,2.367,2.818,2.367,3.494,0,6.425-4.171,7.553-6.876a13.451,13.451,0,0,0,1.127-4.284c.789-.113,1.578-.338,2.029-.338.789-.113.564.789.338,1.353-1.465,3.945-3.945,9.807-3.945,9.92h2.705c1.127-2.48,1.916-4.058,2.818-5.749,1.127-2.029,3.72-5.185,4.734-5.185.338,0,.451.225.338.564-.225,1.353-3.494,6.425-3.382,9.018a2.943,2.943,0,0,0,2.367,3.044l.338-.225a2.441,2.441,0,0,1-.225-1.353c0-1.691,1.353-4.622,1.916-5.749.789-1.8,2.367-4.4,2.254-5.862a1.593,1.593,0,0,0-1.8-1.353c-2.254,0-4.4,2.142-6.313,5.073h0a12.761,12.761,0,0,0,1.353-4.058c0-.676-.451-1.015-1.24-1.015a9.125,9.125,0,0,0-2.142.451c-1.127.225-2.254.564-3.494.9-.789.113-1.015.225-1.015.564.113,4.4-2.818,9.582-4.847,9.582-.9,0-1.015-.676-1.015-1.465,0-3.044,2.48-8.229,4.96-9.018a1.226,1.226,0,0,1,.564-.113l.338-.789a16.648,16.648,0,0,1-2.367.113H114.4c1.465-3.382,3.382-5.636,6.313-5.749,1.8-.113,3.044.676,3.156,1.691a2.89,2.89,0,0,1-.9,2.367l.225.225c1.578-.789,2.705-2.029,2.705-2.931,0-1.353-1.578-2.254-4.284-2.142-3.382,0-7.44.789-10.258,6.763a3.354,3.354,0,0,0-2.254,1.127l.113.225a3.85,3.85,0,0,1,1.691-.225c-.451,1.015-1.24,3.044-2.029,5.3-2.367,3.156-4.847,4.734-6.651,4.734-1.015,0-1.353-.564-1.353-1.465a8.761,8.761,0,0,1,.225-1.8,17.469,17.469,0,0,0,5.523-3.833,5.83,5.83,0,0,0,1.691-3.156c0-1.015-.564-1.465-1.916-1.578a8.6,8.6,0,0,0-5.523,2.705m4.509-1.353c.451,0,.564.338.564.676,0,1.691-2.142,3.833-4.847,5.411.789-2.593,2.705-6.087,4.284-6.087" transform="translate(4.186 0.037)"/>
    <path id="XMLID_6_" class="cls-1" d="M138.429,29.545a1.9,1.9,0,0,0,1.691-1.578c.225-.9-.338-1.578-1.127-1.465A1.9,1.9,0,0,0,137.3,28.08a1.176,1.176,0,0,0,1.127,1.465" transform="translate(9.236 0.189)"/>
    <path id="XMLID_5_" class="cls-1" d="M120.386,50.7c-27.617,0-55.686.338-55.686.789s28.068.789,55.686.789,55.686-.338,55.686-.789S148,50.7,120.386,50.7" transform="translate(0 3.27)"/>
    <path id="XMLID_4_" class="cls-1" d="M74.788,34.356l.225-.113a3.978,3.978,0,0,1-.338-1.578c.113-3.607,3.945-5.636,9.807-5.636h3.269a10.85,10.85,0,0,0-4.734,5.411c-.564,1.24-3.044,7.665-4.058,10.483-1.24,3.494-2.142,4.96-3.156,5.636l.225.338c2.818.225,4.509-1.24,5.636-3.945,1.015-2.48,2.367-6.538,3.044-8.342,2.142-5.749,3.156-8.229,4.847-9.469h4.734c2.593-.113,3.72-.676,4.509-1.691L98.685,25a8.77,8.77,0,0,1-3.269.451H83.693c-6.651,0-10.709,2.142-11.385,5.411a2.824,2.824,0,0,0,2.48,3.494" transform="translate(0.959)"/>
  </g>
</svg>
