<?xml version="1.0" encoding="UTF-8"?>
<svg id="Capa_1" data-name="Capa 1" xmlns="http://www.w3.org/2000/svg" viewBox="0 0 1920 1080">
  <defs>
    <style>
      .cls-1 {
        fill: #06f;
        stroke-width: 0px;
      }
    </style>
  </defs>
  <g>
    <circle class="cls-1" cx="421.2" cy="463.55" r="33.68"/>
    <circle class="cls-1" cx="500.34" cy="463.55" r="33.68"/>
    <circle class="cls-1" cx="579.48" cy="463.55" r="33.68"/>
    <circle class="cls-1" cx="500.34" cy="542.69" r="33.68"/>
    <circle class="cls-1" cx="500.34" cy="621.83" r="33.68"/>
  </g>
  <g>
    <path class="cls-1" d="M707.21,464.4h-24.95v-14.85h65.35v14.85h-24.95v68.32h-15.44v-68.32Z"/>
    <path class="cls-1" d="M799.76,514.9c-1.31,4.75-8.79,19.01-27.92,19.01-17.82,0-30.89-13.07-30.89-31.49s13.07-31.49,30.89-31.49c16.63,0,29.7,13.07,29.7,30.3,0,1.78-.24,3.21-.36,4.28l-.24,1.66h-45.15c1.31,8.44,7.6,14.26,16.04,14.26,7.01,0,11.29-4.04,12.48-6.53h15.45ZM786.69,497.08c-1.31-7.72-6.42-13.66-14.85-13.66-9.03,0-14.26,5.94-16.04,13.66h30.89Z"/>
    <path class="cls-1" d="M810.45,449.55h14.85v83.17h-14.85v-83.17Z"/>
    <path class="cls-1" d="M893.01,514.9c-1.31,4.75-8.79,19.01-27.92,19.01-17.82,0-30.89-13.07-30.89-31.49s13.07-31.49,30.89-31.49c16.63,0,29.7,13.07,29.7,30.3,0,1.78-.24,3.21-.36,4.28l-.24,1.66h-45.15c1.31,8.44,7.6,14.26,16.04,14.26,7.01,0,11.29-4.04,12.48-6.53h15.45ZM879.94,497.08c-1.31-7.72-6.42-13.66-14.85-13.66-9.03,0-14.26,5.94-16.04,13.66h30.89Z"/>
    <path class="cls-1" d="M908.45,486.38h-10.1v-14.26h10.1v-8.91c0-9.03,5.82-14.85,14.85-14.85h13.07v13.07h-8.91c-2.38,0-4.16,1.78-4.16,4.16v6.53h13.07v14.26h-13.07v46.34h-14.85v-46.34Z"/>
    <path class="cls-1" d="M1000.37,502.42c0,18.42-13.07,31.49-30.89,31.49s-30.89-13.07-30.89-31.49,13.07-31.49,30.89-31.49,30.89,13.07,30.89,31.49ZM985.52,502.42c0-10.69-7.13-17.82-16.04-17.82s-16.04,7.13-16.04,17.82,7.13,17.82,16.04,17.82,16.04-7.13,16.04-17.82Z"/>
    <path class="cls-1" d="M1009.27,472.13h13.66l1.19,5.94h.59c1.07-1.31,2.5-2.49,4.04-3.56,2.73-1.78,6.89-3.57,12.59-3.57,13.66,0,23.76,10.1,23.76,25.55v36.24h-14.85v-35.05c0-7.72-5.35-13.07-13.07-13.07s-13.07,5.35-13.07,13.07v35.05h-14.85v-60.59Z"/>
    <path class="cls-1" d="M1159.64,510.15c-1.9,9.5-9.39,23.76-28.51,23.76-17.82,0-30.89-13.07-30.89-31.49s13.07-31.49,30.89-31.49c19.13,0,26.61,14.26,28.51,23.17h-14.85c-1.31-3.45-4.75-9.5-13.66-9.5s-16.04,7.13-16.04,17.82,7.13,17.82,16.04,17.82,12.36-5.94,13.66-10.1h14.85Z"/>
    <path class="cls-1" d="M1204.55,526.78h-.59c-1.07,1.31-2.49,2.49-4.16,3.56-2.85,1.78-7.01,3.56-13.07,3.56-13.78,0-21.98-8.44-21.98-18.41,0-11.88,8.32-20.2,24.95-20.2h13.66v-1.19c0-6.65-4.04-11.29-10.69-11.29s-10.1,4.28-10.69,7.72h-14.85c1.31-9.98,9.39-19.61,25.54-19.61s25.54,10.22,25.54,23.17v38.61h-12.48l-1.19-5.94ZM1203.36,506.58h-12.48c-7.72,0-11.29,2.97-11.29,7.72s3.45,7.72,9.5,7.72c9.03,0,14.26-5.23,14.26-13.66v-1.78Z"/>
    <path class="cls-1" d="M1076.49,472.13h14.85v60.59h-14.85v-60.59Z"/>
    <circle class="cls-1" cx="1083.91" cy="454.63" r="8.79"/>
    <polygon class="cls-1" points="974.83 446.58 990.28 446.58 976.02 463.81 963.54 463.81 974.83 446.58"/>
  </g>
  <g>
    <path class="cls-1" d="M707.65,648.59v-79.92h14.82v79.92h-14.82Z"/>
    <path class="cls-1" d="M737.52,648.59v-57.89h12.06l1.11,5.59h.55c2.1-2.74,7.63-6.74,16.04-6.74,12.83,0,22.12,9.71,22.12,24.32v34.71h-13.94v-32.77c0-7.31-4.87-12.56-11.84-12.56s-12.17,5.37-12.17,12.56v32.77h-13.94Z"/>
    <path class="cls-1" d="M803,648.59v-57.89h12.06l1.11,5.59h.55c2.1-2.74,7.63-6.74,16.04-6.74,12.83,0,22.12,9.71,22.12,24.32v34.71h-13.94v-32.77c0-7.31-4.87-12.56-11.84-12.56s-12.17,5.37-12.17,12.56v32.77h-13.94Z"/>
    <path class="cls-1" d="M865.62,619.7c0-17.47,12.17-30.14,28.54-30.14s28.54,12.67,28.54,30.14-12.28,30.03-28.54,30.03-28.54-12.67-28.54-30.03ZM908.76,619.7c0-10.16-6.64-16.78-14.6-16.78s-14.71,6.62-14.71,16.78,6.64,16.67,14.71,16.67,14.6-6.62,14.6-16.67Z"/>
    <path class="cls-1" d="M945.15,648.59l-19.25-57.89h14.49l13.27,40.87h2.21l13.27-40.87h14.49l-19.25,57.89h-19.25Z"/>
    <path class="cls-1" d="M987.41,631.92c0-11.07,7.41-18.95,22.9-18.95h13.16v-1.26c0-6.05-3.98-10.28-10.07-10.28s-9.4,3.42-10.18,6.62h-13.61c.88-9.25,8.96-18.5,23.78-18.5s24.01,9.36,24.01,22.15v36.88h-12.06l-1.11-5.59h-.55c-2.1,2.85-7.85,6.74-16.04,6.74-12.5,0-20.24-7.76-20.24-17.81ZM1023.48,624.95v-1.71h-11.73c-7.3,0-10.4,3.2-10.4,7.53s3.1,7.42,8.74,7.42c8.41,0,13.39-5.14,13.39-13.24Z"/>
    <path class="cls-1" d="M1048.14,619.7c0-17.47,12.28-30.14,28.54-30.14s24.67,11.08,26.77,22.38h-14.05c-1.44-4.68-5.42-9.02-12.72-9.02-7.96,0-14.6,6.62-14.6,16.78s6.64,16.78,14.6,16.78c7.3,0,11.28-4.34,12.72-9.48h14.05c-2.1,11.65-11.06,22.72-26.77,22.72s-28.54-12.67-28.54-30.03Z"/>
    <path class="cls-1" d="M1112.86,574.49c0-4.68,3.43-7.99,8.08-7.99s8.19,3.31,8.19,7.99-3.54,7.99-8.19,7.99-8.08-3.42-8.08-7.99ZM1113.96,648.59v-57.89h13.94v57.89h-13.94Z"/>
    <path class="cls-1" d="M1138.96,619.7c0-17.47,12.17-30.14,28.54-30.14s28.54,12.67,28.54,30.14-12.28,30.03-28.54,30.03-28.54-12.67-28.54-30.03ZM1182.11,619.7c0-10.16-6.64-16.78-14.6-16.78s-14.71,6.62-14.71,16.78,6.64,16.67,14.71,16.67,14.6-6.62,14.6-16.67ZM1161.86,582.48l10.62-16.44h14.49l-13.27,16.44h-11.84Z"/>
    <path class="cls-1" d="M1207,648.59v-57.89h12.06l1.11,5.59h.55c2.1-2.74,7.63-6.74,16.04-6.74,12.83,0,22.13,9.71,22.13,24.32v34.71h-13.94v-32.77c0-7.31-4.87-12.56-11.84-12.56s-12.17,5.37-12.17,12.56v32.77h-13.94Z"/>
    <path class="cls-1" d="M1302.02,648.59v-79.92h27.88c21.24,0,37.39,16.9,37.39,39.96s-16.15,39.96-37.39,39.96h-27.88ZM1316.84,633.98h13.05c12.72,0,22.68-10.28,22.68-25.35s-9.96-25.35-22.68-25.35h-13.05v50.69Z"/>
    <path class="cls-1" d="M1378.02,574.49c0-4.68,3.43-7.99,8.08-7.99s8.19,3.31,8.19,7.99-3.54,7.99-8.19,7.99-8.08-3.42-8.08-7.99ZM1379.12,648.59v-57.89h13.94v57.89h-13.94Z"/>
    <path class="cls-1" d="M1405.67,651.33h14.16c.55,3.65,4.09,8.68,12.5,8.68,7.96,0,13.16-5.14,13.16-13.02v-7.99h-.55c-2.77,3.2-8.41,6.28-15.38,6.28-14.38,0-25.44-11.42-25.44-27.86s11.06-27.86,25.44-27.86c7.41,0,12.72,3.08,16.15,7.42h.55l1.11-6.28h12.06v56.4c0,15.19-10.07,25.46-27.1,25.46-19.03,0-26.33-13.02-26.66-21.24ZM1445.5,617.42c0-8.91-6.08-15.07-13.72-15.07s-13.72,6.16-13.72,15.07,6.08,15.07,13.72,15.07,13.72-6.17,13.72-15.07Z"/>
    <path class="cls-1" d="M1472.27,574.49c0-4.68,3.43-7.99,8.08-7.99s8.19,3.31,8.19,7.99-3.54,7.99-8.19,7.99-8.08-3.42-8.08-7.99ZM1473.38,648.59v-57.89h13.94v57.89h-13.94Z"/>
    <path class="cls-1" d="M1520.17,648.59c-9.18,0-14.27-5.25-14.27-13.81v-30.48h-8.85v-13.59h8.85v-17.35h13.94v17.35h12.72v13.59h-12.72v27.52c0,2.63,1.11,3.77,3.65,3.77h9.07v13.02h-12.39Z"/>
    <path class="cls-1" d="M1539.75,631.92c0-11.07,7.41-18.95,22.9-18.95h13.16v-1.26c0-6.05-3.98-10.28-10.07-10.28s-9.4,3.42-10.18,6.62h-13.61c.89-9.25,8.96-18.5,23.78-18.5s24,9.36,24,22.15v36.88h-12.06l-1.11-5.59h-.55c-2.1,2.85-7.85,6.74-16.04,6.74-12.5,0-20.24-7.76-20.24-17.81ZM1575.81,624.95v-1.71h-11.73c-7.3,0-10.4,3.2-10.4,7.53s3.1,7.42,8.74,7.42c8.41,0,13.39-5.14,13.39-13.24Z"/>
    <path class="cls-1" d="M1603.91,648.59v-79.92h13.94v79.92h-13.94Z"/>
  </g>
</svg>