<?xml version="1.0" encoding="UTF-8"?>
<!-- Generator: Adobe Illustrator 24.3.0, SVG Export Plug-In . SVG Version: 6.00 Build 0)  -->
<svg xmlns="http://www.w3.org/2000/svg" xmlns:xlink="http://www.w3.org/1999/xlink" version="1.1" id="Capa_1" x="0px" y="0px" viewBox="0 0 500 500" style="enable-background:new 0 0 500 500;" xml:space="preserve">
<style type="text/css">
	.st0{fill-rule:evenodd;clip-rule:evenodd;fill:#006AFF;}
</style>
<desc>Created with sketchtool.</desc>
<g id="Page-1">
	<g id="Sábana-de-iconos-Copy" transform="translate(-791.000000, -2464.000000)">
		<path id="ic_lockopen_regular" class="st0" d="M1198.2,2693.7c0.1-1.4,1.1-18.4-9.7-30c-7.6-8.3-19.9-12.4-36.5-12.4    c-64.4,0-214.1,0.2-221.9,0.2h-0.7l0,0c-0.4,0-0.8,0-1.1-0.1c-0.1,0-0.9-0.1-2.1-0.1c-5.5,0-21.1,0.9-31.4,10.7    c-7.3,6.8-11,17.4-11,31.4v197.7c-0.1,1.1-0.9,18.3,10,30c7.5,8.1,19.6,12.2,35.8,12.2l222.5-0.1c1.2,0,22.3,1.2,35.3-11.2    c7.3-7,10.9-17.3,10.9-31.3C1198.2,2825.8,1198.2,2693.7,1198.2,2693.7z M1228.4,2695c0.1,0,0,131.1,0.1,195.8    c0,22.8-6.9,40.8-20.6,53.8c-22.7,21.5-55.5,19.4-56.8,19.3l-221.4,0.1c-25,0-44.6-7.5-58.1-22.2c-19.8-21.6-17.9-50.5-17.9-51.7    l-0.1-196.6c0-23,7-41.2,20.8-54.1c12.9-12,29-16.4,40.6-17.9v-30.2c0-93.1,62-126.8,119.9-127.3c3.7,0,7.6,0.1,11,0.1    c46.7,1.1,101.9,25.3,116.9,89.9c1.9,8.3-3.1,16.5-11.2,18.4c-8,1.9-16.2-3.1-18.2-11.4c-13.9-59.9-71-65.9-88.2-66.3    c-3.1-0.1-6.7-0.1-10-0.1c-27,0.2-90,10.2-90,96.7v29.6c41.3-0.1,153.4-0.2,206.7-0.2c25.5,0,45.4,7.5,59,22.5    C1230.6,2664.8,1228.5,2693.7,1228.4,2695z M1040,2826.3c34.4-0.6,34.4-27.3,34.4-37.4c0-9.1,0-36.9-34.9-37.7    c-1.4,0-2.8-0.1-4.3-0.1h-1.1c-33.8,0.4-33.8,27.2-33.8,37.4c0,10.2,0,37.4,34.4,37.8h1.8H1040z M1040.2,2720.6    c13.2,0.4,64.5,5.6,64.5,68.3c0,62.9-51.4,67.7-64.2,68c-1.2,0-2.6,0-4,0h-2.2c-13.5-0.2-64.2-5.1-64.2-68.4    c0-63.1,50.2-67.9,63.7-67.9h1.4C1036.9,2720.5,1038.7,2720.5,1040.2,2720.6z" style="fill: #58617a;"/>
	</g>
</g>
</svg>
