<?xml version="1.0" encoding="utf-8"?>
<!-- Generator: Adobe Illustrator 24.3.0, SVG Export Plug-In . SVG Version: 6.00 Build 0)  -->
<svg version="1.1" id="Capa_1" xmlns="http://www.w3.org/2000/svg" xmlns:xlink="http://www.w3.org/1999/xlink" x="0px" y="0px"
	 viewBox="0 0 500 500" style="enable-background:new 0 0 500 500;" xml:space="preserve">
<style type="text/css">
	.st0{fill-rule:evenodd;clip-rule:evenodd;fill:#006AFF;}
</style>
<path class="st0" d="M191.7,90.8c-13.2,12.9-19.9,33.2-19.9,60c0,26.8,6.7,47,19.9,59.9c12.7,12.5,32.2,18.9,57.6,18.9
	s44.9-6.3,57.8-18.9c13.3-12.9,20-33.1,20-59.9s-6.7-47-20-60c-12.9-12.6-32.3-18.9-57.7-18.9C223.9,71.9,204.5,78.2,191.7,90.8
	L191.7,90.8z M249.4,249.8c-30.8,0-54.9-8.3-71.4-24.5c-17.2-16.9-26-41.9-26-74.5c0-32.5,8.8-57.7,26-74.6
	c16.6-16.4,40.7-24.7,71.4-24.7s54.9,8.3,71.6,24.6c17.4,16.9,26.2,42,26.2,74.6s-8.8,57.6-26.2,74.5
	C304.2,241.6,280.2,249.8,249.4,249.8z M79,216.4c-5.3,5.2-8,13.9-8,25.9s2.7,20.6,8,25.8c5.1,5.1,13.5,7.6,24.8,7.6
	c11.4,0,19.8-2.6,25-7.6c5.3-5.2,8-13.9,8-25.8c0-12-2.7-20.6-8-25.8c-5.2-5.1-13.6-7.7-25-7.7C92.5,208.7,84.2,211.3,79,216.4z
	 M103.8,295.9c-16.6,0-29.7-4.5-38.7-13.2c-9.3-9.2-14.1-22.8-14.1-40.4s4.8-31.2,14.1-40.4c9-8.8,22.1-13.4,38.7-13.4
	c16.7,0,29.7,4.5,38.8,13.3c9.4,9.2,14.2,22.8,14.2,40.4c0,17.6-4.8,31.2-14.2,40.4C133.6,291.4,120.5,295.9,103.8,295.9z
	 M371.3,216c-5.3,5.2-8,13.9-8,25.9c0,11.9,2.7,20.6,8,25.8c5.2,5.1,13.6,7.6,25,7.6s19.7-2.6,24.9-7.6c5.3-5.2,8-13.9,8-25.8
	c0-12-2.7-20.6-8-25.9c-5.1-5.1-13.5-7.6-24.8-7.6C384.9,208.4,376.5,211,371.3,216z M357.5,282.3c-9.4-9.2-14.2-22.8-14.2-40.4
	s4.8-31.2,14.2-40.4c9-8.9,22.1-13.4,38.8-13.4s29.7,4.5,38.8,13.3c9.3,9.2,14.1,22.8,14.1,40.5c0,17.6-4.7,31.2-14.1,40.3
	c-9,8.8-22.1,13.2-38.8,13.2C379.6,295.5,366.5,291.1,357.5,282.3z M480.1,392.6v-13.9c0-14.4-4.2-26.5-12.4-35.1
	c-9-9.5-22.6-14.4-39.3-14.4h-30.7c14.3,16.6,22.7,38.3,24.5,63.4H480.1z M402.7,427.2v-23.9c0-26.1-7.8-48.2-22.5-63.8
	c-16.1-17-40.9-26.1-71.6-26.1H189.9c-30.7,0-55.2,9.1-71.4,26.1C103.8,355,96,377.1,96,403.3v23.9H402.7z M76.6,393
	c1.8-25.1,10-46.8,24.3-63.4H71.6c-16.7,0-30.3,4.9-39.3,14.4c-8,8.5-12.4,20.6-12.4,35v14C19.9,393,76.6,393,76.6,393z
	 M482.1,329.6c11.7,12.4,17.9,29.4,17.9,49v18c0.1,8.9-7,16.1-15.9,16.2h-61.4v23.5c0,6.2-5,11.2-11.2,11.2H87.3
	c-6.1,0-11.1-5-11.2-11.2v-23.1h-60c-9-0.1-16.2-7.3-16.1-16.3v-0.1V379c0-19.6,6.2-36.6,17.9-49.2c12.8-13.3,31.3-20.4,53.6-20.4
	h53.2c17.7-10.7,39.8-16.2,65.2-16.2h118.8c25.1,0,47,5.3,64.7,15.8h55C450.8,309,469.3,316,482.1,329.6z"/>
</svg>
